<?xml version="1.0" encoding="UTF-8"?>
<svg xmlns="http://www.w3.org/2000/svg" xmlns:xlink="http://www.w3.org/1999/xlink"
     width="400000" height="400000" viewBox="-500 -1500 2000 2000">
<defs>
</defs>
<path d="M0,0 L5.0,-0.0" stroke="black" />
<path d="M5.0,-0.0 L5.0,5.0" stroke="black" />
<path d="M5.0,5.0 L0.0,5.000000000000001" stroke="black" />
<path d="M0.0,5.000000000000001 L3.061616997868383e-16,10.0" stroke="black" />
<path d="M3.061616997868383e-16,10.0 L-5.0,10.0" stroke="black" />
<path d="M-5.0,10.0 L-5.000000000000001,5.0" stroke="black" />
<path d="M-5.000000000000001,5.0 L-10.0,5.000000000000001" stroke="black" />
<path d="M-10.0,5.000000000000001 L-10.0,10.0" stroke="black" />
<path d="M-10.0,10.0 L-15.0,10.0" stroke="black" />
<path d="M-15.0,10.0 L-15.000000000000002,5.0" stroke="black" />
<path d="M-15.000000000000002,5.0 L-10.000000000000002,4.999999999999999" stroke="black" />
<path d="M-10.000000000000002,4.999999999999999 L-10.000000000000004,-8.881784197001252e-16" stroke="black" />
<path d="M-10.000000000000004,-8.881784197001252e-16 L-15.000000000000004,-2.758550201264486e-16" stroke="black" />
<path d="M-15.000000000000004,-2.758550201264486e-16 L-15.000000000000005,-5.0" stroke="black" />
<path d="M-15.000000000000005,-5.0 L-20.000000000000007,-4.999999999999999" stroke="black" />
<path d="M-20.000000000000007,-4.999999999999999 L-20.000000000000007,8.881784197001252e-16" stroke="black" />
<path d="M-20.000000000000007,8.881784197001252e-16 L-25.000000000000007,1.5005018192738018e-15" stroke="black" />
<path d="M-25.000000000000007,1.5005018192738018e-15 L-25.000000000000007,-4.999999999999998" stroke="black" />
<path d="M-25.000000000000007,-4.999999999999998 L-20.000000000000007,-4.999999999999999" stroke="black" />
<path d="M-20.000000000000007,-4.999999999999999 L-20.000000000000007,-10.0" stroke="black" />
<path d="M-20.000000000000007,-10.0 L-15.000000000000007,-10.000000000000002" stroke="black" />
<path d="M-15.000000000000007,-10.000000000000002 L-15.000000000000005,-5.000000000000002" stroke="black" />
<path d="M-15.000000000000005,-5.000000000000002 L-10.000000000000005,-5.000000000000003" stroke="black" />
<path d="M-10.000000000000005,-5.000000000000003 L-10.000000000000007,-10.000000000000004" stroke="black" />
<path d="M-10.000000000000007,-10.000000000000004 L-15.000000000000007,-10.000000000000004" stroke="black" />
<path d="M-15.000000000000007,-10.000000000000004 L-15.000000000000009,-15.000000000000004" stroke="black" />
<path d="M-15.000000000000009,-15.000000000000004 L-10.000000000000009,-15.000000000000005" stroke="black" />
<path d="M-10.000000000000009,-15.000000000000005 L-10.00000000000001,-20.000000000000007" stroke="black" />
<path d="M-10.00000000000001,-20.000000000000007 L-15.00000000000001,-20.000000000000007" stroke="black" />
<path d="M-15.00000000000001,-20.000000000000007 L-15.000000000000012,-25.000000000000007" stroke="black" />
<path d="M-15.000000000000012,-25.000000000000007 L-20.000000000000014,-25.000000000000007" stroke="black" />
<path d="M-20.000000000000014,-25.000000000000007 L-20.000000000000014,-20.000000000000007" stroke="black" />
<path d="M-20.000000000000014,-20.000000000000007 L-25.000000000000014,-20.000000000000007" stroke="black" />
<path d="M-25.000000000000014,-20.000000000000007 L-25.000000000000014,-25.000000000000007" stroke="black" />
<path d="M-25.000000000000014,-25.000000000000007 L-20.000000000000014,-25.000000000000007" stroke="black" />
<path d="M-20.000000000000014,-25.000000000000007 L-20.000000000000014,-30.000000000000007" stroke="black" />
<path d="M-20.000000000000014,-30.000000000000007 L-15.000000000000014,-30.000000000000007" stroke="black" />
<path d="M-15.000000000000014,-30.000000000000007 L-15.000000000000012,-25.000000000000007" stroke="black" />
<path d="M-15.000000000000012,-25.000000000000007 L-10.000000000000012,-25.000000000000007" stroke="black" />
<path d="M-10.000000000000012,-25.000000000000007 L-10.000000000000014,-30.000000000000007" stroke="black" />
<path d="M-10.000000000000014,-30.000000000000007 L-5.000000000000014,-30.000000000000007" stroke="black" />
<path d="M-5.000000000000014,-30.000000000000007 L-5.000000000000012,-25.000000000000007" stroke="black" />
<path d="M-5.000000000000012,-25.000000000000007 L-10.000000000000012,-25.000000000000004" stroke="black" />
<path d="M-10.000000000000012,-25.000000000000004 L-10.00000000000001,-20.000000000000004" stroke="black" />
<path d="M-10.00000000000001,-20.000000000000004 L-5.000000000000011,-20.000000000000004" stroke="black" />
<path d="M-5.000000000000011,-20.000000000000004 L-5.000000000000009,-15.000000000000004" stroke="black" />
<path d="M-5.000000000000009,-15.000000000000004 L-8.881784197001252e-15,-15.000000000000005" stroke="black" />
<path d="M-8.881784197001252e-15,-15.000000000000005 L-9.800269296361768e-15,-20.000000000000007" stroke="black" />
<path d="M-9.800269296361768e-15,-20.000000000000007 L-5.00000000000001,-20.000000000000007" stroke="black" />
<path d="M-5.00000000000001,-20.000000000000007 L-5.000000000000011,-25.000000000000007" stroke="black" />
<path d="M-5.000000000000011,-25.000000000000007 L-1.0658141036401503e-14,-25.000000000000007" stroke="black" />
<path d="M-1.0658141036401503e-14,-25.000000000000007 L-1.1576626135762018e-14,-30.000000000000007" stroke="black" />
<path d="M-1.1576626135762018e-14,-30.000000000000007 L4.9999999999999885,-30.000000000000007" stroke="black" />
<path d="M4.9999999999999885,-30.000000000000007 L4.99999999999999,-25.000000000000007" stroke="black" />
<path d="M4.99999999999999,-25.000000000000007 L9.99999999999999,-25.000000000000007" stroke="black" />
<path d="M9.99999999999999,-25.000000000000007 L9.999999999999988,-30.000000000000007" stroke="black" />
<path d="M9.999999999999988,-30.000000000000007 L4.999999999999988,-30.000000000000007" stroke="black" />
<path d="M4.999999999999988,-30.000000000000007 L4.999999999999987,-35.00000000000001" stroke="black" />
<path d="M4.999999999999987,-35.00000000000001 L9.999999999999986,-35.00000000000001" stroke="black" />
<path d="M9.999999999999986,-35.00000000000001 L9.999999999999984,-40.00000000000001" stroke="black" />
<path d="M9.999999999999984,-40.00000000000001 L4.999999999999984,-40.00000000000001" stroke="black" />
<path d="M4.999999999999984,-40.00000000000001 L4.999999999999983,-45.00000000000001" stroke="black" />
<path d="M4.999999999999983,-45.00000000000001 L-1.687538997430238e-14,-45.00000000000001" stroke="black" />
<path d="M-1.687538997430238e-14,-45.00000000000001 L-1.656922827451554e-14,-40.00000000000001" stroke="black" />
<path d="M-1.656922827451554e-14,-40.00000000000001 L-5.000000000000017,-40.00000000000001" stroke="black" />
<path d="M-5.000000000000017,-40.00000000000001 L-5.000000000000018,-45.00000000000001" stroke="black" />
<path d="M-5.000000000000018,-45.00000000000001 L-1.7763568394002505e-14,-45.00000000000001" stroke="black" />
<path d="M-1.7763568394002505e-14,-45.00000000000001 L-1.8682053493363018e-14,-50.00000000000001" stroke="black" />
<path d="M-1.8682053493363018e-14,-50.00000000000001 L4.999999999999981,-50.00000000000001" stroke="black" />
<path d="M4.999999999999981,-50.00000000000001 L4.999999999999983,-45.00000000000001" stroke="black" />
<path d="M4.999999999999983,-45.00000000000001 L9.999999999999982,-45.00000000000001" stroke="black" />
<path d="M9.999999999999982,-45.00000000000001 L9.99999999999998,-50.00000000000001" stroke="black" />
<path d="M9.99999999999998,-50.00000000000001 L14.99999999999998,-50.00000000000001" stroke="black" />
<path d="M14.99999999999998,-50.00000000000001 L14.999999999999982,-45.00000000000001" stroke="black" />
<path d="M14.999999999999982,-45.00000000000001 L9.999999999999982,-45.00000000000001" stroke="black" />
<path d="M9.999999999999982,-45.00000000000001 L9.999999999999984,-40.00000000000001" stroke="black" />
<path d="M9.999999999999984,-40.00000000000001 L14.999999999999984,-40.00000000000001" stroke="black" />
<path d="M14.999999999999984,-40.00000000000001 L14.999999999999986,-35.00000000000001" stroke="black" />
<path d="M14.999999999999986,-35.00000000000001 L19.999999999999986,-35.00000000000001" stroke="black" />
<path d="M19.999999999999986,-35.00000000000001 L19.999999999999986,-40.00000000000001" stroke="black" />
<path d="M19.999999999999986,-40.00000000000001 L24.999999999999986,-40.00000000000001" stroke="black" />
<path d="M24.999999999999986,-40.00000000000001 L24.999999999999986,-35.00000000000001" stroke="black" />
<path d="M24.999999999999986,-35.00000000000001 L19.999999999999986,-35.00000000000001" stroke="black" />
<path d="M19.999999999999986,-35.00000000000001 L19.999999999999986,-30.000000000000007" stroke="black" />
<path d="M19.999999999999986,-30.000000000000007 L14.999999999999986,-30.000000000000004" stroke="black" />
<path d="M14.999999999999986,-30.000000000000004 L14.999999999999984,-35.0" stroke="black" />
<path d="M14.999999999999984,-35.0 L9.999999999999984,-35.0" stroke="black" />
<path d="M9.999999999999984,-35.0 L9.999999999999986,-30.0" stroke="black" />
<path d="M9.999999999999986,-30.0 L14.999999999999986,-30.0" stroke="black" />
<path d="M14.999999999999986,-30.0 L14.999999999999988,-25.0" stroke="black" />
<path d="M14.999999999999988,-25.0 L9.999999999999988,-24.999999999999996" stroke="black" />
<path d="M9.999999999999988,-24.999999999999996 L9.99999999999999,-19.999999999999996" stroke="black" />
<path d="M9.99999999999999,-19.999999999999996 L14.99999999999999,-19.999999999999996" stroke="black" />
<path d="M14.99999999999999,-19.999999999999996 L14.999999999999991,-14.999999999999996" stroke="black" />
<path d="M14.999999999999991,-14.999999999999996 L19.999999999999993,-14.999999999999998" stroke="black" />
<path d="M19.999999999999993,-14.999999999999998 L19.999999999999993,-20.0" stroke="black" />
<path d="M19.999999999999993,-20.0 L14.999999999999993,-20.0" stroke="black" />
<path d="M14.999999999999993,-20.0 L14.999999999999991,-25.0" stroke="black" />
<path d="M14.999999999999991,-25.0 L19.999999999999993,-25.0" stroke="black" />
<path d="M19.999999999999993,-25.0 L19.999999999999993,-30.0" stroke="black" />
<path d="M19.999999999999993,-30.0 L24.999999999999993,-30.0" stroke="black" />
<path d="M24.999999999999993,-30.0 L24.999999999999993,-25.0" stroke="black" />
<path d="M24.999999999999993,-25.0 L29.999999999999993,-25.0" stroke="black" />
<path d="M29.999999999999993,-25.0 L29.999999999999993,-30.0" stroke="black" />
<path d="M29.999999999999993,-30.0 L34.99999999999999,-30.0" stroke="black" />
<path d="M34.99999999999999,-30.0 L34.99999999999999,-25.0" stroke="black" />
<path d="M34.99999999999999,-25.0 L29.999999999999993,-24.999999999999996" stroke="black" />
<path d="M29.999999999999993,-24.999999999999996 L29.999999999999993,-19.999999999999996" stroke="black" />
<path d="M29.999999999999993,-19.999999999999996 L34.99999999999999,-19.999999999999996" stroke="black" />
<path d="M34.99999999999999,-19.999999999999996 L34.99999999999999,-14.999999999999996" stroke="black" />
<path d="M34.99999999999999,-14.999999999999996 L39.99999999999999,-14.999999999999998" stroke="black" />
<path d="M39.99999999999999,-14.999999999999998 L39.99999999999999,-20.0" stroke="black" />
<path d="M39.99999999999999,-20.0 L34.99999999999999,-20.0" stroke="black" />
<path d="M34.99999999999999,-20.0 L34.99999999999999,-25.0" stroke="black" />
<path d="M34.99999999999999,-25.0 L39.99999999999999,-25.0" stroke="black" />
<path d="M39.99999999999999,-25.0 L39.99999999999999,-30.0" stroke="black" />
<path d="M39.99999999999999,-30.0 L44.99999999999999,-30.0" stroke="black" />
<path d="M44.99999999999999,-30.0 L44.99999999999999,-25.0" stroke="black" />
<path d="M44.99999999999999,-25.0 L49.99999999999999,-25.0" stroke="black" />
<path d="M49.99999999999999,-25.0 L49.99999999999999,-30.0" stroke="black" />
<path d="M49.99999999999999,-30.0 L44.99999999999999,-30.0" stroke="black" />
<path d="M44.99999999999999,-30.0 L44.99999999999999,-35.0" stroke="black" />
<path d="M44.99999999999999,-35.0 L49.99999999999999,-35.0" stroke="black" />
<path d="M49.99999999999999,-35.0 L49.99999999999999,-40.0" stroke="black" />
<path d="M49.99999999999999,-40.0 L44.99999999999999,-40.0" stroke="black" />
<path d="M44.99999999999999,-40.0 L44.99999999999999,-45.0" stroke="black" />
<path d="M44.99999999999999,-45.0 L39.99999999999999,-45.0" stroke="black" />
<path d="M39.99999999999999,-45.0 L39.99999999999999,-40.0" stroke="black" />
<path d="M39.99999999999999,-40.0 L34.99999999999999,-40.0" stroke="black" />
<path d="M34.99999999999999,-40.0 L34.99999999999999,-45.0" stroke="black" />
<path d="M34.99999999999999,-45.0 L39.99999999999999,-45.0" stroke="black" />
<path d="M39.99999999999999,-45.0 L39.99999999999999,-50.0" stroke="black" />
<path d="M39.99999999999999,-50.0 L44.99999999999999,-50.0" stroke="black" />
<path d="M44.99999999999999,-50.0 L44.99999999999999,-45.0" stroke="black" />
<path d="M44.99999999999999,-45.0 L49.99999999999999,-45.0" stroke="black" />
<path d="M49.99999999999999,-45.0 L49.99999999999999,-50.0" stroke="black" />
<path d="M49.99999999999999,-50.0 L54.99999999999999,-50.0" stroke="black" />
<path d="M54.99999999999999,-50.0 L54.99999999999999,-45.0" stroke="black" />
<path d="M54.99999999999999,-45.0 L49.99999999999999,-45.0" stroke="black" />
<path d="M49.99999999999999,-45.0 L49.99999999999999,-40.0" stroke="black" />
<path d="M49.99999999999999,-40.0 L54.99999999999999,-40.0" stroke="black" />
<path d="M54.99999999999999,-40.0 L54.99999999999999,-35.0" stroke="black" />
<path d="M54.99999999999999,-35.0 L59.99999999999999,-35.0" stroke="black" />
<path d="M59.99999999999999,-35.0 L59.99999999999999,-40.0" stroke="black" />
<path d="M59.99999999999999,-40.0 L65.0,-40.0" stroke="black" />
<path d="M65.0,-40.0 L65.0,-35.0" stroke="black" />
<path d="M65.0,-35.0 L60.0,-35.0" stroke="black" />
<path d="M60.0,-35.0 L60.0,-30.0" stroke="black" />
<path d="M60.0,-30.0 L55.0,-29.999999999999996" stroke="black" />
<path d="M55.0,-29.999999999999996 L55.0,-35.0" stroke="black" />
<path d="M55.0,-35.0 L50.0,-35.0" stroke="black" />
<path d="M50.0,-35.0 L50.0,-30.0" stroke="black" />
<path d="M50.0,-30.0 L55.0,-30.0" stroke="black" />
<path d="M55.0,-30.0 L55.0,-25.0" stroke="black" />
<path d="M55.0,-25.0 L50.0,-24.999999999999996" stroke="black" />
<path d="M50.0,-24.999999999999996 L50.0,-19.999999999999996" stroke="black" />
<path d="M50.0,-19.999999999999996 L55.0,-19.999999999999996" stroke="black" />
<path d="M55.0,-19.999999999999996 L55.0,-14.999999999999996" stroke="black" />
<path d="M55.0,-14.999999999999996 L60.0,-14.999999999999998" stroke="black" />
<path d="M60.0,-14.999999999999998 L60.0,-20.0" stroke="black" />
<path d="M60.0,-20.0 L65.0,-20.0" stroke="black" />
<path d="M65.0,-20.0 L65.0,-15.0" stroke="black" />
<path d="M65.0,-15.0 L60.0,-14.999999999999998" stroke="black" />
<path d="M60.0,-14.999999999999998 L60.0,-9.999999999999998" stroke="black" />
<path d="M60.0,-9.999999999999998 L55.0,-9.999999999999996" stroke="black" />
<path d="M55.0,-9.999999999999996 L55.0,-14.999999999999996" stroke="black" />
<path d="M55.0,-14.999999999999996 L50.0,-14.999999999999995" stroke="black" />
<path d="M50.0,-14.999999999999995 L50.0,-9.999999999999995" stroke="black" />
<path d="M50.0,-9.999999999999995 L45.0,-9.999999999999993" stroke="black" />
<path d="M45.0,-9.999999999999993 L45.0,-14.999999999999993" stroke="black" />
<path d="M45.0,-14.999999999999993 L50.0,-14.999999999999995" stroke="black" />
<path d="M50.0,-14.999999999999995 L50.0,-19.999999999999993" stroke="black" />
<path d="M50.0,-19.999999999999993 L45.0,-19.99999999999999" stroke="black" />
<path d="M45.0,-19.99999999999999 L45.0,-24.99999999999999" stroke="black" />
<path d="M45.0,-24.99999999999999 L40.0,-24.999999999999986" stroke="black" />
<path d="M40.0,-24.999999999999986 L40.0,-19.999999999999986" stroke="black" />
<path d="M40.0,-19.999999999999986 L45.0,-19.999999999999986" stroke="black" />
<path d="M45.0,-19.999999999999986 L45.0,-14.999999999999986" stroke="black" />
<path d="M45.0,-14.999999999999986 L40.0,-14.999999999999984" stroke="black" />
<path d="M40.0,-14.999999999999984 L40.0,-9.999999999999984" stroke="black" />
<path d="M40.0,-9.999999999999984 L35.0,-9.999999999999982" stroke="black" />
<path d="M35.0,-9.999999999999982 L35.0,-14.999999999999982" stroke="black" />
<path d="M35.0,-14.999999999999982 L30.0,-14.99999999999998" stroke="black" />
<path d="M30.0,-14.99999999999998 L30.0,-9.99999999999998" stroke="black" />
<path d="M30.0,-9.99999999999998 L35.0,-9.999999999999982" stroke="black" />
<path d="M35.0,-9.999999999999982 L35.0,-4.999999999999982" stroke="black" />
<path d="M35.0,-4.999999999999982 L30.0,-4.9999999999999805" stroke="black" />
<path d="M30.0,-4.9999999999999805 L30.0,1.9539925233402755e-14" stroke="black" />
<path d="M30.0,1.9539925233402755e-14 L35.0,1.83152784342554e-14" stroke="black" />
<path d="M35.0,1.83152784342554e-14 L35.0,5.000000000000019" stroke="black" />
<path d="M35.0,5.000000000000019 L40.0,5.000000000000018" stroke="black" />
<path d="M40.0,5.000000000000018 L40.0,1.7763568394002505e-14" stroke="black" />
<path d="M40.0,1.7763568394002505e-14 L35.0,1.837589179357618e-14" stroke="black" />
<path d="M35.0,1.837589179357618e-14 L35.0,-4.999999999999981" stroke="black" />
<path d="M35.0,-4.999999999999981 L40.0,-4.999999999999982" stroke="black" />
<path d="M40.0,-4.999999999999982 L40.0,-9.999999999999982" stroke="black" />
<path d="M40.0,-9.999999999999982 L45.0,-9.999999999999984" stroke="black" />
<path d="M45.0,-9.999999999999984 L45.0,-4.999999999999984" stroke="black" />
<path d="M45.0,-4.999999999999984 L50.0,-4.999999999999985" stroke="black" />
<path d="M50.0,-4.999999999999985 L50.0,-9.999999999999986" stroke="black" />
<path d="M50.0,-9.999999999999986 L55.0,-9.999999999999988" stroke="black" />
<path d="M55.0,-9.999999999999988 L55.0,-4.999999999999988" stroke="black" />
<path d="M55.0,-4.999999999999988 L50.0,-4.999999999999986" stroke="black" />
<path d="M50.0,-4.999999999999986 L50.0,1.4210854715202004e-14" stroke="black" />
<path d="M50.0,1.4210854715202004e-14 L55.0,1.298620791605465e-14" stroke="black" />
<path d="M55.0,1.298620791605465e-14 L55.0,5.000000000000013" stroke="black" />
<path d="M55.0,5.000000000000013 L60.0,5.000000000000012" stroke="black" />
<path d="M60.0,5.000000000000012 L60.0,1.2434497875801753e-14" stroke="black" />
<path d="M60.0,1.2434497875801753e-14 L65.0,1.12098510766544e-14" stroke="black" />
<path d="M65.0,1.12098510766544e-14 L65.0,5.0000000000000115" stroke="black" />
<path d="M65.0,5.0000000000000115 L60.0,5.000000000000013" stroke="black" />
<path d="M60.0,5.000000000000013 L60.0,10.000000000000014" stroke="black" />
<path d="M60.0,10.000000000000014 L55.0,10.000000000000016" stroke="black" />
<path d="M55.0,10.000000000000016 L55.0,5.000000000000016" stroke="black" />
<path d="M55.0,5.000000000000016 L50.0,5.000000000000018" stroke="black" />
<path d="M50.0,5.000000000000018 L50.0,10.000000000000018" stroke="black" />
<path d="M50.0,10.000000000000018 L55.0,10.000000000000016" stroke="black" />
<path d="M55.0,10.000000000000016 L55.0,15.000000000000016" stroke="black" />
<path d="M55.0,15.000000000000016 L50.0,15.000000000000018" stroke="black" />
<path d="M50.0,15.000000000000018 L50.0,20.000000000000018" stroke="black" />
<path d="M50.0,20.000000000000018 L55.0,20.000000000000018" stroke="black" />
<path d="M55.0,20.000000000000018 L55.0,25.000000000000018" stroke="black" />
<path d="M55.0,25.000000000000018 L60.0,25.000000000000018" stroke="black" />
<path d="M60.0,25.000000000000018 L60.0,20.000000000000018" stroke="black" />
<path d="M60.0,20.000000000000018 L55.0,20.000000000000018" stroke="black" />
<path d="M55.0,20.000000000000018 L55.0,15.000000000000018" stroke="black" />
<path d="M55.0,15.000000000000018 L60.0,15.000000000000016" stroke="black" />
<path d="M60.0,15.000000000000016 L60.0,10.000000000000016" stroke="black" />
<path d="M60.0,10.000000000000016 L65.0,10.000000000000014" stroke="black" />
<path d="M65.0,10.000000000000014 L65.0,15.000000000000014" stroke="black" />
<path d="M65.0,15.000000000000014 L70.0,15.000000000000012" stroke="black" />
<path d="M70.0,15.000000000000012 L70.0,10.000000000000012" stroke="black" />
<path d="M70.0,10.000000000000012 L75.0,10.00000000000001" stroke="black" />
<path d="M75.0,10.00000000000001 L75.0,15.00000000000001" stroke="black" />
<path d="M75.0,15.00000000000001 L70.0,15.000000000000012" stroke="black" />
<path d="M70.0,15.000000000000012 L70.0,20.000000000000014" stroke="black" />
<path d="M70.0,20.000000000000014 L75.0,20.000000000000014" stroke="black" />
<path d="M75.0,20.000000000000014 L75.0,25.000000000000014" stroke="black" />
<path d="M75.0,25.000000000000014 L80.0,25.000000000000014" stroke="black" />
<path d="M80.0,25.000000000000014 L80.0,20.000000000000014" stroke="black" />
<path d="M80.0,20.000000000000014 L75.0,20.000000000000014" stroke="black" />
<path d="M75.0,20.000000000000014 L75.0,15.000000000000014" stroke="black" />
<path d="M75.0,15.000000000000014 L80.0,15.000000000000012" stroke="black" />
<path d="M80.0,15.000000000000012 L80.0,10.000000000000012" stroke="black" />
<path d="M80.0,10.000000000000012 L85.0,10.00000000000001" stroke="black" />
<path d="M85.0,10.00000000000001 L85.0,15.00000000000001" stroke="black" />
<path d="M85.0,15.00000000000001 L90.0,15.000000000000009" stroke="black" />
<path d="M90.0,15.000000000000009 L90.0,10.000000000000009" stroke="black" />
<path d="M90.0,10.000000000000009 L85.0,10.000000000000009" stroke="black" />
<path d="M85.0,10.000000000000009 L85.0,5.000000000000009" stroke="black" />
<path d="M85.0,5.000000000000009 L90.0,5.000000000000008" stroke="black" />
<path d="M90.0,5.000000000000008 L90.0,7.993605777301127e-15" stroke="black" />
<path d="M90.0,7.993605777301127e-15 L85.0,8.605929176874804e-15" stroke="black" />
<path d="M85.0,8.605929176874804e-15 L85.0,-4.999999999999991" stroke="black" />
<path d="M85.0,-4.999999999999991 L80.0,-4.99999999999999" stroke="black" />
<path d="M80.0,-4.99999999999999 L80.0,9.769962616701378e-15" stroke="black" />
<path d="M80.0,9.769962616701378e-15 L75.0,1.0382286016275055e-14" stroke="black" />
<path d="M75.0,1.0382286016275055e-14 L75.0,-4.999999999999989" stroke="black" />
<path d="M75.0,-4.999999999999989 L80.0,-4.99999999999999" stroke="black" />
<path d="M80.0,-4.99999999999999 L80.0,-9.99999999999999" stroke="black" />
<path d="M80.0,-9.99999999999999 L85.0,-9.999999999999991" stroke="black" />
<path d="M85.0,-9.999999999999991 L85.0,-4.999999999999991" stroke="black" />
<path d="M85.0,-4.999999999999991 L90.0,-4.999999999999992" stroke="black" />
<path d="M90.0,-4.999999999999992 L90.0,-9.999999999999993" stroke="black" />
<path d="M90.0,-9.999999999999993 L95.0,-9.999999999999995" stroke="black" />
<path d="M95.0,-9.999999999999995 L95.0,-4.999999999999995" stroke="black" />
<path d="M95.0,-4.999999999999995 L90.0,-4.999999999999993" stroke="black" />
<path d="M90.0,-4.999999999999993 L90.0,7.105427357601002e-15" stroke="black" />
<path d="M90.0,7.105427357601002e-15 L95.0,5.880780558453649e-15" stroke="black" />
<path d="M95.0,5.880780558453649e-15 L95.0,5.000000000000006" stroke="black" />
<path d="M95.0,5.000000000000006 L100.0,5.000000000000005" stroke="black" />
<path d="M100.0,5.000000000000005 L100.0,5.329070518200751e-15" stroke="black" />
<path d="M100.0,5.329070518200751e-15 L105.0,4.104423719053398e-15" stroke="black" />
<path d="M105.0,4.104423719053398e-15 L105.0,5.000000000000004" stroke="black" />
<path d="M105.0,5.000000000000004 L100.0,5.000000000000006" stroke="black" />
<path d="M100.0,5.000000000000006 L100.0,10.000000000000007" stroke="black" />
<path d="M100.0,10.000000000000007 L95.0,10.000000000000009" stroke="black" />
<path d="M95.0,10.000000000000009 L95.0,5.000000000000009" stroke="black" />
<path d="M95.0,5.000000000000009 L90.0,5.000000000000011" stroke="black" />
<path d="M90.0,5.000000000000011 L90.0,10.00000000000001" stroke="black" />
<path d="M90.0,10.00000000000001 L95.0,10.000000000000009" stroke="black" />
<path d="M95.0,10.000000000000009 L95.0,15.000000000000009" stroke="black" />
<path d="M95.0,15.000000000000009 L90.0,15.00000000000001" stroke="black" />
<path d="M90.0,15.00000000000001 L90.0,20.00000000000001" stroke="black" />
<path d="M90.0,20.00000000000001 L95.0,20.00000000000001" stroke="black" />
<path d="M95.0,20.00000000000001 L95.0,25.00000000000001" stroke="black" />
<path d="M95.0,25.00000000000001 L100.0,25.00000000000001" stroke="black" />
<path d="M100.0,25.00000000000001 L100.0,20.00000000000001" stroke="black" />
<path d="M100.0,20.00000000000001 L105.0,20.00000000000001" stroke="black" />
<path d="M105.0,20.00000000000001 L105.0,25.00000000000001" stroke="black" />
<path d="M105.0,25.00000000000001 L100.0,25.000000000000014" stroke="black" />
<path d="M100.0,25.000000000000014 L100.0,30.000000000000014" stroke="black" />
<path d="M100.0,30.000000000000014 L95.0,30.000000000000018" stroke="black" />
<path d="M95.0,30.000000000000018 L95.0,25.000000000000018" stroke="black" />
<path d="M95.0,25.000000000000018 L90.0,25.00000000000002" stroke="black" />
<path d="M90.0,25.00000000000002 L90.0,30.00000000000002" stroke="black" />
<path d="M90.0,30.00000000000002 L85.0,30.000000000000025" stroke="black" />
<path d="M85.0,30.000000000000025 L85.0,25.000000000000025" stroke="black" />
<path d="M85.0,25.000000000000025 L90.0,25.00000000000002" stroke="black" />
<path d="M90.0,25.00000000000002 L90.0,20.00000000000002" stroke="black" />
<path d="M90.0,20.00000000000002 L85.0,20.000000000000025" stroke="black" />
<path d="M85.0,20.000000000000025 L85.0,15.000000000000025" stroke="black" />
<path d="M85.0,15.000000000000025 L80.0,15.000000000000027" stroke="black" />
<path d="M80.0,15.000000000000027 L80.0,20.00000000000003" stroke="black" />
<path d="M80.0,20.00000000000003 L85.0,20.00000000000003" stroke="black" />
<path d="M85.0,20.00000000000003 L85.0,25.00000000000003" stroke="black" />
<path d="M85.0,25.00000000000003 L80.0,25.000000000000032" stroke="black" />
<path d="M80.0,25.000000000000032 L80.0,30.000000000000032" stroke="black" />
<path d="M80.0,30.000000000000032 L75.0,30.000000000000036" stroke="black" />
<path d="M75.0,30.000000000000036 L75.0,25.000000000000036" stroke="black" />
<path d="M75.0,25.000000000000036 L70.0,25.00000000000004" stroke="black" />
<path d="M70.0,25.00000000000004 L70.0,30.00000000000004" stroke="black" />
<path d="M70.0,30.00000000000004 L75.0,30.00000000000004" stroke="black" />
<path d="M75.0,30.00000000000004 L75.0,35.00000000000004" stroke="black" />
<path d="M75.0,35.00000000000004 L70.0,35.00000000000004" stroke="black" />
<path d="M70.0,35.00000000000004 L70.0,40.00000000000004" stroke="black" />
<path d="M70.0,40.00000000000004 L75.0,40.00000000000004" stroke="black" />
<path d="M75.0,40.00000000000004 L75.0,45.00000000000004" stroke="black" />
<path d="M75.0,45.00000000000004 L80.0,45.00000000000004" stroke="black" />
<path d="M80.0,45.00000000000004 L80.0,40.00000000000004" stroke="black" />
<path d="M80.0,40.00000000000004 L85.0,40.00000000000004" stroke="black" />
<path d="M85.0,40.00000000000004 L85.0,45.00000000000004" stroke="black" />
<path d="M85.0,45.00000000000004 L80.0,45.00000000000004" stroke="black" />
<path d="M80.0,45.00000000000004 L80.0,50.00000000000004" stroke="black" />
<path d="M80.0,50.00000000000004 L75.0,50.00000000000004" stroke="black" />
<path d="M75.0,50.00000000000004 L75.0,45.00000000000004" stroke="black" />
<path d="M75.0,45.00000000000004 L70.0,45.00000000000004" stroke="black" />
<path d="M70.0,45.00000000000004 L70.0,50.00000000000004" stroke="black" />
<path d="M70.0,50.00000000000004 L65.0,50.00000000000004" stroke="black" />
<path d="M65.0,50.00000000000004 L65.0,45.00000000000004" stroke="black" />
<path d="M65.0,45.00000000000004 L70.0,45.00000000000004" stroke="black" />
<path d="M70.0,45.00000000000004 L70.0,40.00000000000004" stroke="black" />
<path d="M70.0,40.00000000000004 L65.0,40.00000000000004" stroke="black" />
<path d="M65.0,40.00000000000004 L65.0,35.00000000000004" stroke="black" />
<path d="M65.0,35.00000000000004 L60.0,35.00000000000004" stroke="black" />
<path d="M60.0,35.00000000000004 L60.0,40.00000000000004" stroke="black" />
<path d="M60.0,40.00000000000004 L55.0,40.00000000000004" stroke="black" />
<path d="M55.0,40.00000000000004 L55.0,35.00000000000004" stroke="black" />
<path d="M55.0,35.00000000000004 L60.0,35.00000000000004" stroke="black" />
<path d="M60.0,35.00000000000004 L60.0,30.000000000000043" stroke="black" />
<path d="M60.0,30.000000000000043 L65.0,30.00000000000004" stroke="black" />
<path d="M65.0,30.00000000000004 L65.0,35.00000000000004" stroke="black" />
<path d="M65.0,35.00000000000004 L70.0,35.00000000000004" stroke="black" />
<path d="M70.0,35.00000000000004 L70.0,30.000000000000043" stroke="black" />
<path d="M70.0,30.000000000000043 L65.0,30.000000000000046" stroke="black" />
<path d="M65.0,30.000000000000046 L65.0,25.000000000000046" stroke="black" />
<path d="M65.0,25.000000000000046 L70.0,25.000000000000043" stroke="black" />
<path d="M70.0,25.000000000000043 L70.0,20.000000000000043" stroke="black" />
<path d="M70.0,20.000000000000043 L65.0,20.000000000000046" stroke="black" />
<path d="M65.0,20.000000000000046 L65.0,15.000000000000046" stroke="black" />
<path d="M65.0,15.000000000000046 L60.0,15.000000000000048" stroke="black" />
<path d="M60.0,15.000000000000048 L60.0,20.00000000000005" stroke="black" />
<path d="M60.0,20.00000000000005 L65.0,20.00000000000005" stroke="black" />
<path d="M65.0,20.00000000000005 L65.0,25.00000000000005" stroke="black" />
<path d="M65.0,25.00000000000005 L60.0,25.000000000000053" stroke="black" />
<path d="M60.0,25.000000000000053 L60.0,30.000000000000053" stroke="black" />
<path d="M60.0,30.000000000000053 L55.0,30.000000000000057" stroke="black" />
<path d="M55.0,30.000000000000057 L55.0,25.000000000000057" stroke="black" />
<path d="M55.0,25.000000000000057 L50.0,25.00000000000006" stroke="black" />
<path d="M50.0,25.00000000000006 L50.0,30.00000000000006" stroke="black" />
<path d="M50.0,30.00000000000006 L45.0,30.000000000000064" stroke="black" />
<path d="M45.0,30.000000000000064 L45.0,25.000000000000064" stroke="black" />
<path d="M45.0,25.000000000000064 L50.0,25.00000000000006" stroke="black" />
<path d="M50.0,25.00000000000006 L50.0,20.00000000000006" stroke="black" />
<path d="M50.0,20.00000000000006 L45.0,20.000000000000064" stroke="black" />
<path d="M45.0,20.000000000000064 L45.0,15.000000000000064" stroke="black" />
<path d="M45.0,15.000000000000064 L40.0,15.000000000000066" stroke="black" />
<path d="M40.0,15.000000000000066 L40.0,20.000000000000064" stroke="black" />
<path d="M40.0,20.000000000000064 L45.0,20.000000000000064" stroke="black" />
<path d="M45.0,20.000000000000064 L45.0,25.000000000000064" stroke="black" />
<path d="M45.0,25.000000000000064 L40.0,25.000000000000068" stroke="black" />
<path d="M40.0,25.000000000000068 L40.0,30.000000000000068" stroke="black" />
<path d="M40.0,30.000000000000068 L35.0,30.00000000000007" stroke="black" />
<path d="M35.0,30.00000000000007 L35.0,25.00000000000007" stroke="black" />
<path d="M35.0,25.00000000000007 L30.0,25.000000000000075" stroke="black" />
<path d="M30.0,25.000000000000075 L30.0,30.000000000000075" stroke="black" />
<path d="M30.0,30.000000000000075 L35.0,30.000000000000075" stroke="black" />
<path d="M35.0,30.000000000000075 L35.0,35.00000000000007" stroke="black" />
<path d="M35.0,35.00000000000007 L30.0,35.00000000000007" stroke="black" />
<path d="M30.0,35.00000000000007 L30.0,40.00000000000007" stroke="black" />
<path d="M30.0,40.00000000000007 L35.0,40.00000000000007" stroke="black" />
<path d="M35.0,40.00000000000007 L35.0,45.00000000000007" stroke="black" />
<path d="M35.0,45.00000000000007 L40.0,45.00000000000007" stroke="black" />
<path d="M40.0,45.00000000000007 L40.0,40.00000000000007" stroke="black" />
<path d="M40.0,40.00000000000007 L35.0,40.00000000000007" stroke="black" />
<path d="M35.0,40.00000000000007 L35.0,35.00000000000007" stroke="black" />
<path d="M35.0,35.00000000000007 L40.0,35.00000000000007" stroke="black" />
<path d="M40.0,35.00000000000007 L40.0,30.00000000000007" stroke="black" />
<path d="M40.0,30.00000000000007 L45.0,30.00000000000007" stroke="black" />
<path d="M45.0,30.00000000000007 L45.0,35.00000000000007" stroke="black" />
<path d="M45.0,35.00000000000007 L50.0,35.00000000000007" stroke="black" />
<path d="M50.0,35.00000000000007 L50.0,30.00000000000007" stroke="black" />
<path d="M50.0,30.00000000000007 L55.0,30.00000000000007" stroke="black" />
<path d="M55.0,30.00000000000007 L55.0,35.00000000000007" stroke="black" />
<path d="M55.0,35.00000000000007 L50.0,35.00000000000007" stroke="black" />
<path d="M50.0,35.00000000000007 L50.0,40.00000000000007" stroke="black" />
<path d="M50.0,40.00000000000007 L55.0,40.00000000000007" stroke="black" />
<path d="M55.0,40.00000000000007 L55.0,45.00000000000007" stroke="black" />
<path d="M55.0,45.00000000000007 L60.0,45.00000000000007" stroke="black" />
<path d="M60.0,45.00000000000007 L60.0,40.00000000000007" stroke="black" />
<path d="M60.0,40.00000000000007 L65.0,40.00000000000007" stroke="black" />
<path d="M65.0,40.00000000000007 L65.0,45.00000000000007" stroke="black" />
<path d="M65.0,45.00000000000007 L60.0,45.00000000000007" stroke="black" />
<path d="M60.0,45.00000000000007 L60.0,50.00000000000007" stroke="black" />
<path d="M60.0,50.00000000000007 L55.0,50.00000000000007" stroke="black" />
<path d="M55.0,50.00000000000007 L55.0,45.00000000000007" stroke="black" />
<path d="M55.0,45.00000000000007 L50.0,45.00000000000007" stroke="black" />
<path d="M50.0,45.00000000000007 L50.0,50.00000000000007" stroke="black" />
<path d="M50.0,50.00000000000007 L55.0,50.00000000000007" stroke="black" />
<path d="M55.0,50.00000000000007 L55.0,55.00000000000007" stroke="black" />
<path d="M55.0,55.00000000000007 L50.0,55.00000000000007" stroke="black" />
<path d="M50.0,55.00000000000007 L50.0,60.00000000000007" stroke="black" />
<path d="M50.0,60.00000000000007 L55.0,60.00000000000007" stroke="black" />
<path d="M55.0,60.00000000000007 L55.0,65.00000000000007" stroke="black" />
<path d="M55.0,65.00000000000007 L60.0,65.00000000000007" stroke="black" />
<path d="M60.0,65.00000000000007 L60.0,60.00000000000007" stroke="black" />
<path d="M60.0,60.00000000000007 L65.0,60.00000000000007" stroke="black" />
<path d="M65.0,60.00000000000007 L65.0,65.00000000000007" stroke="black" />
<path d="M65.0,65.00000000000007 L60.0,65.00000000000007" stroke="black" />
<path d="M60.0,65.00000000000007 L60.0,70.00000000000007" stroke="black" />
<path d="M60.0,70.00000000000007 L55.0,70.00000000000007" stroke="black" />
<path d="M55.0,70.00000000000007 L55.0,65.00000000000007" stroke="black" />
<path d="M55.0,65.00000000000007 L50.0,65.00000000000007" stroke="black" />
<path d="M50.0,65.00000000000007 L50.0,70.00000000000007" stroke="black" />
<path d="M50.0,70.00000000000007 L45.0,70.00000000000007" stroke="black" />
<path d="M45.0,70.00000000000007 L45.0,65.00000000000007" stroke="black" />
<path d="M45.0,65.00000000000007 L50.0,65.00000000000007" stroke="black" />
<path d="M50.0,65.00000000000007 L50.0,60.00000000000007" stroke="black" />
<path d="M50.0,60.00000000000007 L45.0,60.00000000000007" stroke="black" />
<path d="M45.0,60.00000000000007 L45.0,55.00000000000007" stroke="black" />
<path d="M45.0,55.00000000000007 L40.0,55.00000000000007" stroke="black" />
<path d="M40.0,55.00000000000007 L40.0,60.00000000000007" stroke="black" />
<path d="M40.0,60.00000000000007 L45.0,60.00000000000007" stroke="black" />
<path d="M45.0,60.00000000000007 L45.0,65.00000000000007" stroke="black" />
<path d="M45.0,65.00000000000007 L40.0,65.00000000000007" stroke="black" />
<path d="M40.0,65.00000000000007 L40.0,70.00000000000007" stroke="black" />
<path d="M40.0,70.00000000000007 L35.0,70.00000000000007" stroke="black" />
<path d="M35.0,70.00000000000007 L35.0,65.00000000000007" stroke="black" />
<path d="M35.0,65.00000000000007 L30.0,65.00000000000007" stroke="black" />
<path d="M30.0,65.00000000000007 L30.0,70.00000000000007" stroke="black" />
<path d="M30.0,70.00000000000007 L35.0,70.00000000000007" stroke="black" />
<path d="M35.0,70.00000000000007 L35.0,75.00000000000007" stroke="black" />
<path d="M35.0,75.00000000000007 L30.0,75.00000000000007" stroke="black" />
<path d="M30.0,75.00000000000007 L30.0,80.00000000000007" stroke="black" />
<path d="M30.0,80.00000000000007 L35.0,80.00000000000007" stroke="black" />
<path d="M35.0,80.00000000000007 L35.0,85.00000000000007" stroke="black" />
<path d="M35.0,85.00000000000007 L40.0,85.00000000000007" stroke="black" />
<path d="M40.0,85.00000000000007 L40.0,80.00000000000007" stroke="black" />
<path d="M40.0,80.00000000000007 L35.0,80.00000000000007" stroke="black" />
<path d="M35.0,80.00000000000007 L35.0,75.00000000000007" stroke="black" />
<path d="M35.0,75.00000000000007 L40.0,75.00000000000007" stroke="black" />
<path d="M40.0,75.00000000000007 L40.0,70.00000000000007" stroke="black" />
<path d="M40.0,70.00000000000007 L45.0,70.00000000000007" stroke="black" />
<path d="M45.0,70.00000000000007 L45.0,75.00000000000007" stroke="black" />
<path d="M45.0,75.00000000000007 L50.0,75.00000000000007" stroke="black" />
<path d="M50.0,75.00000000000007 L50.0,70.00000000000007" stroke="black" />
<path d="M50.0,70.00000000000007 L55.0,70.00000000000007" stroke="black" />
<path d="M55.0,70.00000000000007 L55.0,75.00000000000007" stroke="black" />
<path d="M55.0,75.00000000000007 L50.0,75.00000000000007" stroke="black" />
<path d="M50.0,75.00000000000007 L50.0,80.00000000000007" stroke="black" />
<path d="M50.0,80.00000000000007 L55.0,80.00000000000007" stroke="black" />
<path d="M55.0,80.00000000000007 L55.0,85.00000000000007" stroke="black" />
<path d="M55.0,85.00000000000007 L60.0,85.00000000000007" stroke="black" />
<path d="M60.0,85.00000000000007 L60.0,80.00000000000007" stroke="black" />
<path d="M60.0,80.00000000000007 L65.0,80.00000000000007" stroke="black" />
<path d="M65.0,80.00000000000007 L65.0,85.00000000000007" stroke="black" />
<path d="M65.0,85.00000000000007 L60.0,85.00000000000007" stroke="black" />
<path d="M60.0,85.00000000000007 L60.0,90.00000000000007" stroke="black" />
<path d="M60.0,90.00000000000007 L55.0,90.00000000000007" stroke="black" />
<path d="M55.0,90.00000000000007 L55.0,85.00000000000007" stroke="black" />
<path d="M55.0,85.00000000000007 L50.0,85.00000000000007" stroke="black" />
<path d="M50.0,85.00000000000007 L50.0,90.00000000000007" stroke="black" />
<path d="M50.0,90.00000000000007 L55.0,90.00000000000007" stroke="black" />
<path d="M55.0,90.00000000000007 L55.0,95.00000000000007" stroke="black" />
<path d="M55.0,95.00000000000007 L50.0,95.00000000000007" stroke="black" />
<path d="M50.0,95.00000000000007 L50.0,100.00000000000007" stroke="black" />
<path d="M50.0,100.00000000000007 L55.0,100.00000000000007" stroke="black" />
<path d="M55.0,100.00000000000007 L55.0,105.00000000000007" stroke="black" />
<path d="M55.0,105.00000000000007 L60.0,105.00000000000007" stroke="black" />
<path d="M60.0,105.00000000000007 L60.0,100.00000000000007" stroke="black" />
<path d="M60.0,100.00000000000007 L55.0,100.00000000000007" stroke="black" />
<path d="M55.0,100.00000000000007 L55.0,95.00000000000007" stroke="black" />
<path d="M55.0,95.00000000000007 L60.0,95.00000000000007" stroke="black" />
<path d="M60.0,95.00000000000007 L60.0,90.00000000000007" stroke="black" />
<path d="M60.0,90.00000000000007 L65.0,90.00000000000007" stroke="black" />
<path d="M65.0,90.00000000000007 L65.0,95.00000000000007" stroke="black" />
<path d="M65.0,95.00000000000007 L70.0,95.00000000000007" stroke="black" />
<path d="M70.0,95.00000000000007 L70.0,90.00000000000007" stroke="black" />
<path d="M70.0,90.00000000000007 L75.0,90.00000000000007" stroke="black" />
<path d="M75.0,90.00000000000007 L75.0,95.00000000000007" stroke="black" />
<path d="M75.0,95.00000000000007 L70.0,95.00000000000007" stroke="black" />
<path d="M70.0,95.00000000000007 L70.0,100.00000000000007" stroke="black" />
<path d="M70.0,100.00000000000007 L75.0,100.00000000000007" stroke="black" />
<path d="M75.0,100.00000000000007 L75.0,105.00000000000007" stroke="black" />
<path d="M75.0,105.00000000000007 L80.0,105.00000000000007" stroke="black" />
<path d="M80.0,105.00000000000007 L80.0,100.00000000000007" stroke="black" />
<path d="M80.0,100.00000000000007 L75.0,100.00000000000007" stroke="black" />
<path d="M75.0,100.00000000000007 L75.0,95.00000000000007" stroke="black" />
<path d="M75.0,95.00000000000007 L80.0,95.00000000000007" stroke="black" />
<path d="M80.0,95.00000000000007 L80.0,90.00000000000007" stroke="black" />
<path d="M80.0,90.00000000000007 L85.0,90.00000000000007" stroke="black" />
<path d="M85.0,90.00000000000007 L85.0,95.00000000000007" stroke="black" />
<path d="M85.0,95.00000000000007 L90.0,95.00000000000007" stroke="black" />
<path d="M90.0,95.00000000000007 L90.0,90.00000000000007" stroke="black" />
<path d="M90.0,90.00000000000007 L85.0,90.00000000000007" stroke="black" />
<path d="M85.0,90.00000000000007 L85.0,85.00000000000007" stroke="black" />
<path d="M85.0,85.00000000000007 L90.0,85.00000000000007" stroke="black" />
<path d="M90.0,85.00000000000007 L90.0,80.00000000000007" stroke="black" />
<path d="M90.0,80.00000000000007 L85.0,80.00000000000007" stroke="black" />
<path d="M85.0,80.00000000000007 L85.0,75.00000000000007" stroke="black" />
<path d="M85.0,75.00000000000007 L80.0,75.00000000000007" stroke="black" />
<path d="M80.0,75.00000000000007 L80.0,80.00000000000007" stroke="black" />
<path d="M80.0,80.00000000000007 L75.0,80.00000000000007" stroke="black" />
<path d="M75.0,80.00000000000007 L75.0,75.00000000000007" stroke="black" />
<path d="M75.0,75.00000000000007 L80.0,75.00000000000007" stroke="black" />
<path d="M80.0,75.00000000000007 L80.0,70.00000000000007" stroke="black" />
<path d="M80.0,70.00000000000007 L85.0,70.00000000000007" stroke="black" />
<path d="M85.0,70.00000000000007 L85.0,75.00000000000007" stroke="black" />
<path d="M85.0,75.00000000000007 L90.0,75.00000000000007" stroke="black" />
<path d="M90.0,75.00000000000007 L90.0,70.00000000000007" stroke="black" />
<path d="M90.0,70.00000000000007 L95.0,70.00000000000007" stroke="black" />
<path d="M95.0,70.00000000000007 L95.0,75.00000000000007" stroke="black" />
<path d="M95.0,75.00000000000007 L90.0,75.00000000000007" stroke="black" />
<path d="M90.0,75.00000000000007 L90.0,80.00000000000007" stroke="black" />
<path d="M90.0,80.00000000000007 L95.0,80.00000000000007" stroke="black" />
<path d="M95.0,80.00000000000007 L95.0,85.00000000000007" stroke="black" />
<path d="M95.0,85.00000000000007 L100.0,85.00000000000007" stroke="black" />
<path d="M100.0,85.00000000000007 L100.0,80.00000000000007" stroke="black" />
<path d="M100.0,80.00000000000007 L105.0,80.00000000000007" stroke="black" />
<path d="M105.0,80.00000000000007 L105.0,85.00000000000007" stroke="black" />
<path d="M105.0,85.00000000000007 L100.0,85.00000000000007" stroke="black" />
<path d="M100.0,85.00000000000007 L100.0,90.00000000000007" stroke="black" />
<path d="M100.0,90.00000000000007 L95.0,90.00000000000007" stroke="black" />
<path d="M95.0,90.00000000000007 L95.0,85.00000000000007" stroke="black" />
<path d="M95.0,85.00000000000007 L90.0,85.00000000000007" stroke="black" />
<path d="M90.0,85.00000000000007 L90.0,90.00000000000007" stroke="black" />
<path d="M90.0,90.00000000000007 L95.0,90.00000000000007" stroke="black" />
<path d="M95.0,90.00000000000007 L95.0,95.00000000000007" stroke="black" />
<path d="M95.0,95.00000000000007 L90.0,95.00000000000007" stroke="black" />
<path d="M90.0,95.00000000000007 L90.0,100.00000000000007" stroke="black" />
<path d="M90.0,100.00000000000007 L95.0,100.00000000000007" stroke="black" />
<path d="M95.0,100.00000000000007 L95.0,105.00000000000007" stroke="black" />
<path d="M95.0,105.00000000000007 L100.0,105.00000000000007" stroke="black" />
<path d="M100.0,105.00000000000007 L100.0,100.00000000000007" stroke="black" />
<path d="M100.0,100.00000000000007 L105.0,100.00000000000007" stroke="black" />
<path d="M105.0,100.00000000000007 L105.0,105.00000000000007" stroke="black" />
<path d="M105.0,105.00000000000007 L100.0,105.00000000000007" stroke="black" />
<path d="M100.0,105.00000000000007 L100.0,110.00000000000007" stroke="black" />
<path d="M100.0,110.00000000000007 L95.0,110.00000000000007" stroke="black" />
<path d="M95.0,110.00000000000007 L95.0,105.00000000000007" stroke="black" />
<path d="M95.0,105.00000000000007 L90.0,105.00000000000007" stroke="black" />
<path d="M90.0,105.00000000000007 L90.0,110.00000000000007" stroke="black" />
<path d="M90.0,110.00000000000007 L85.0,110.00000000000007" stroke="black" />
<path d="M85.0,110.00000000000007 L85.0,105.00000000000007" stroke="black" />
<path d="M85.0,105.00000000000007 L90.0,105.00000000000007" stroke="black" />
<path d="M90.0,105.00000000000007 L90.0,100.00000000000007" stroke="black" />
<path d="M90.0,100.00000000000007 L85.0,100.00000000000007" stroke="black" />
<path d="M85.0,100.00000000000007 L85.0,95.00000000000007" stroke="black" />
<path d="M85.0,95.00000000000007 L80.0,95.00000000000007" stroke="black" />
<path d="M80.0,95.00000000000007 L80.0,100.00000000000007" stroke="black" />
<path d="M80.0,100.00000000000007 L85.0,100.00000000000007" stroke="black" />
<path d="M85.0,100.00000000000007 L85.0,105.00000000000007" stroke="black" />
<path d="M85.0,105.00000000000007 L80.0,105.00000000000007" stroke="black" />
<path d="M80.0,105.00000000000007 L80.0,110.00000000000007" stroke="black" />
<path d="M80.0,110.00000000000007 L75.0,110.00000000000007" stroke="black" />
<path d="M75.0,110.00000000000007 L75.0,105.00000000000007" stroke="black" />
<path d="M75.0,105.00000000000007 L70.0,105.00000000000007" stroke="black" />
<path d="M70.0,105.00000000000007 L70.0,110.00000000000007" stroke="black" />
<path d="M70.0,110.00000000000007 L75.0,110.00000000000007" stroke="black" />
<path d="M75.0,110.00000000000007 L75.0,115.00000000000007" stroke="black" />
<path d="M75.0,115.00000000000007 L70.0,115.00000000000007" stroke="black" />
<path d="M70.0,115.00000000000007 L70.0,120.00000000000007" stroke="black" />
<path d="M70.0,120.00000000000007 L75.0,120.00000000000007" stroke="black" />
<path d="M75.0,120.00000000000007 L75.0,125.00000000000007" stroke="black" />
<path d="M75.0,125.00000000000007 L80.0,125.00000000000007" stroke="black" />
<path d="M80.0,125.00000000000007 L80.0,120.00000000000007" stroke="black" />
<path d="M80.0,120.00000000000007 L85.0,120.00000000000007" stroke="black" />
<path d="M85.0,120.00000000000007 L85.0,125.00000000000007" stroke="black" />
<path d="M85.0,125.00000000000007 L80.0,125.00000000000007" stroke="black" />
<path d="M80.0,125.00000000000007 L80.0,130.00000000000006" stroke="black" />
<path d="M80.0,130.00000000000006 L75.0,130.00000000000006" stroke="black" />
<path d="M75.0,130.00000000000006 L75.0,125.00000000000006" stroke="black" />
<path d="M75.0,125.00000000000006 L70.0,125.00000000000006" stroke="black" />
<path d="M70.0,125.00000000000006 L70.0,130.00000000000006" stroke="black" />
<path d="M70.0,130.00000000000006 L65.0,130.00000000000006" stroke="black" />
<path d="M65.0,130.00000000000006 L65.0,125.00000000000006" stroke="black" />
<path d="M65.0,125.00000000000006 L70.0,125.00000000000006" stroke="black" />
<path d="M70.0,125.00000000000006 L70.0,120.00000000000006" stroke="black" />
<path d="M70.0,120.00000000000006 L65.0,120.00000000000006" stroke="black" />
<path d="M65.0,120.00000000000006 L65.0,115.00000000000006" stroke="black" />
<path d="M65.0,115.00000000000006 L60.0,115.00000000000006" stroke="black" />
<path d="M60.0,115.00000000000006 L60.0,120.00000000000006" stroke="black" />
<path d="M60.0,120.00000000000006 L55.0,120.00000000000006" stroke="black" />
<path d="M55.0,120.00000000000006 L55.0,115.00000000000006" stroke="black" />
<path d="M55.0,115.00000000000006 L60.0,115.00000000000006" stroke="black" />
<path d="M60.0,115.00000000000006 L60.0,110.00000000000006" stroke="black" />
<path d="M60.0,110.00000000000006 L65.0,110.00000000000006" stroke="black" />
<path d="M65.0,110.00000000000006 L65.0,115.00000000000006" stroke="black" />
<path d="M65.0,115.00000000000006 L70.0,115.00000000000006" stroke="black" />
<path d="M70.0,115.00000000000006 L70.0,110.00000000000006" stroke="black" />
<path d="M70.0,110.00000000000006 L65.0,110.00000000000006" stroke="black" />
<path d="M65.0,110.00000000000006 L65.0,105.00000000000006" stroke="black" />
<path d="M65.0,105.00000000000006 L70.0,105.00000000000006" stroke="black" />
<path d="M70.0,105.00000000000006 L70.0,100.00000000000006" stroke="black" />
<path d="M70.0,100.00000000000006 L65.0,100.00000000000006" stroke="black" />
<path d="M65.0,100.00000000000006 L65.0,95.00000000000006" stroke="black" />
<path d="M65.0,95.00000000000006 L60.0,95.00000000000006" stroke="black" />
<path d="M60.0,95.00000000000006 L60.0,100.00000000000006" stroke="black" />
<path d="M60.0,100.00000000000006 L65.0,100.00000000000006" stroke="black" />
<path d="M65.0,100.00000000000006 L65.0,105.00000000000006" stroke="black" />
<path d="M65.0,105.00000000000006 L60.0,105.00000000000006" stroke="black" />
<path d="M60.0,105.00000000000006 L60.0,110.00000000000006" stroke="black" />
<path d="M60.0,110.00000000000006 L55.0,110.00000000000006" stroke="black" />
<path d="M55.0,110.00000000000006 L55.0,105.00000000000006" stroke="black" />
<path d="M55.0,105.00000000000006 L50.0,105.00000000000006" stroke="black" />
<path d="M50.0,105.00000000000006 L50.0,110.00000000000006" stroke="black" />
<path d="M50.0,110.00000000000006 L45.0,110.00000000000006" stroke="black" />
<path d="M45.0,110.00000000000006 L45.0,105.00000000000006" stroke="black" />
<path d="M45.0,105.00000000000006 L50.0,105.00000000000006" stroke="black" />
<path d="M50.0,105.00000000000006 L50.0,100.00000000000006" stroke="black" />
<path d="M50.0,100.00000000000006 L45.0,100.00000000000006" stroke="black" />
<path d="M45.0,100.00000000000006 L45.0,95.00000000000006" stroke="black" />
<path d="M45.0,95.00000000000006 L40.0,95.00000000000006" stroke="black" />
<path d="M40.0,95.00000000000006 L40.0,100.00000000000006" stroke="black" />
<path d="M40.0,100.00000000000006 L45.0,100.00000000000006" stroke="black" />
<path d="M45.0,100.00000000000006 L45.0,105.00000000000006" stroke="black" />
<path d="M45.0,105.00000000000006 L40.0,105.00000000000006" stroke="black" />
<path d="M40.0,105.00000000000006 L40.0,110.00000000000006" stroke="black" />
<path d="M40.0,110.00000000000006 L35.0,110.00000000000006" stroke="black" />
<path d="M35.0,110.00000000000006 L35.0,105.00000000000006" stroke="black" />
<path d="M35.0,105.00000000000006 L30.0,105.00000000000006" stroke="black" />
<path d="M30.0,105.00000000000006 L30.0,110.00000000000006" stroke="black" />
<path d="M30.0,110.00000000000006 L35.0,110.00000000000006" stroke="black" />
<path d="M35.0,110.00000000000006 L35.0,115.00000000000006" stroke="black" />
<path d="M35.0,115.00000000000006 L30.0,115.00000000000006" stroke="black" />
<path d="M30.0,115.00000000000006 L30.0,120.00000000000006" stroke="black" />
<path d="M30.0,120.00000000000006 L35.0,120.00000000000006" stroke="black" />
<path d="M35.0,120.00000000000006 L35.0,125.00000000000006" stroke="black" />
<path d="M35.0,125.00000000000006 L40.0,125.00000000000006" stroke="black" />
<path d="M40.0,125.00000000000006 L40.0,120.00000000000006" stroke="black" />
<path d="M40.0,120.00000000000006 L45.0,120.00000000000006" stroke="black" />
<path d="M45.0,120.00000000000006 L45.0,125.00000000000006" stroke="black" />
<path d="M45.0,125.00000000000006 L40.0,125.00000000000006" stroke="black" />
<path d="M40.0,125.00000000000006 L40.0,130.00000000000006" stroke="black" />
<path d="M40.0,130.00000000000006 L35.0,130.00000000000006" stroke="black" />
<path d="M35.0,130.00000000000006 L35.0,125.00000000000006" stroke="black" />
<path d="M35.0,125.00000000000006 L30.0,125.00000000000006" stroke="black" />
<path d="M30.0,125.00000000000006 L30.0,130.00000000000006" stroke="black" />
<path d="M30.0,130.00000000000006 L25.0,130.00000000000006" stroke="black" />
<path d="M25.0,130.00000000000006 L24.999999999999996,125.00000000000006" stroke="black" />
<path d="M24.999999999999996,125.00000000000006 L29.999999999999996,125.00000000000006" stroke="black" />
<path d="M29.999999999999996,125.00000000000006 L29.999999999999993,120.00000000000006" stroke="black" />
<path d="M29.999999999999993,120.00000000000006 L24.999999999999993,120.00000000000006" stroke="black" />
<path d="M24.999999999999993,120.00000000000006 L24.99999999999999,115.00000000000006" stroke="black" />
<path d="M24.99999999999999,115.00000000000006 L19.99999999999999,115.00000000000006" stroke="black" />
<path d="M19.99999999999999,115.00000000000006 L19.99999999999999,120.00000000000006" stroke="black" />
<path d="M19.99999999999999,120.00000000000006 L14.99999999999999,120.00000000000006" stroke="black" />
<path d="M14.99999999999999,120.00000000000006 L14.999999999999988,115.00000000000006" stroke="black" />
<path d="M14.999999999999988,115.00000000000006 L19.999999999999986,115.00000000000006" stroke="black" />
<path d="M19.999999999999986,115.00000000000006 L19.999999999999982,110.00000000000006" stroke="black" />
<path d="M19.999999999999982,110.00000000000006 L24.999999999999982,110.00000000000006" stroke="black" />
<path d="M24.999999999999982,110.00000000000006 L24.999999999999986,115.00000000000006" stroke="black" />
<path d="M24.999999999999986,115.00000000000006 L29.999999999999986,115.00000000000006" stroke="black" />
<path d="M29.999999999999986,115.00000000000006 L29.999999999999982,110.00000000000006" stroke="black" />
<path d="M29.999999999999982,110.00000000000006 L24.999999999999982,110.00000000000006" stroke="black" />
<path d="M24.999999999999982,110.00000000000006 L24.99999999999998,105.00000000000006" stroke="black" />
<path d="M24.99999999999998,105.00000000000006 L29.99999999999998,105.00000000000006" stroke="black" />
<path d="M29.99999999999998,105.00000000000006 L29.999999999999975,100.00000000000006" stroke="black" />
<path d="M29.999999999999975,100.00000000000006 L24.999999999999975,100.00000000000006" stroke="black" />
<path d="M24.999999999999975,100.00000000000006 L24.99999999999997,95.00000000000006" stroke="black" />
<path d="M24.99999999999997,95.00000000000006 L19.99999999999997,95.00000000000006" stroke="black" />
<path d="M19.99999999999997,95.00000000000006 L19.99999999999997,100.00000000000006" stroke="black" />
<path d="M19.99999999999997,100.00000000000006 L14.999999999999972,100.00000000000006" stroke="black" />
<path d="M14.999999999999972,100.00000000000006 L14.99999999999997,95.00000000000006" stroke="black" />
<path d="M14.99999999999997,95.00000000000006 L19.99999999999997,95.00000000000006" stroke="black" />
<path d="M19.99999999999997,95.00000000000006 L19.999999999999968,90.00000000000006" stroke="black" />
<path d="M19.999999999999968,90.00000000000006 L24.999999999999968,90.00000000000006" stroke="black" />
<path d="M24.999999999999968,90.00000000000006 L24.99999999999997,95.00000000000006" stroke="black" />
<path d="M24.99999999999997,95.00000000000006 L29.99999999999997,95.00000000000006" stroke="black" />
<path d="M29.99999999999997,95.00000000000006 L29.999999999999968,90.00000000000006" stroke="black" />
<path d="M29.999999999999968,90.00000000000006 L34.99999999999997,90.00000000000006" stroke="black" />
<path d="M34.99999999999997,90.00000000000006 L34.99999999999997,95.00000000000006" stroke="black" />
<path d="M34.99999999999997,95.00000000000006 L29.99999999999997,95.00000000000007" stroke="black" />
<path d="M29.99999999999997,95.00000000000007 L29.999999999999982,100.00000000000007" stroke="black" />
<path d="M29.999999999999982,100.00000000000007 L34.999999999999986,100.00000000000006" stroke="black" />
<path d="M34.999999999999986,100.00000000000006 L35.0,105.00000000000006" stroke="black" />
<path d="M35.0,105.00000000000006 L40.0,105.00000000000004" stroke="black" />
<path d="M40.0,105.00000000000004 L39.999999999999986,100.00000000000004" stroke="black" />
<path d="M39.999999999999986,100.00000000000004 L34.999999999999986,100.00000000000006" stroke="black" />
<path d="M34.999999999999986,100.00000000000006 L34.99999999999997,95.00000000000006" stroke="black" />
<path d="M34.99999999999997,95.00000000000006 L39.99999999999997,95.00000000000004" stroke="black" />
<path d="M39.99999999999997,95.00000000000004 L39.99999999999996,90.00000000000004" stroke="black" />
<path d="M39.99999999999996,90.00000000000004 L44.99999999999996,90.00000000000003" stroke="black" />
<path d="M44.99999999999996,90.00000000000003 L44.99999999999997,95.00000000000003" stroke="black" />
<path d="M44.99999999999997,95.00000000000003 L49.99999999999997,95.00000000000001" stroke="black" />
<path d="M49.99999999999997,95.00000000000001 L49.99999999999996,90.00000000000001" stroke="black" />
<path d="M49.99999999999996,90.00000000000001 L44.99999999999996,90.00000000000003" stroke="black" />
<path d="M44.99999999999996,90.00000000000003 L44.99999999999994,85.00000000000003" stroke="black" />
<path d="M44.99999999999994,85.00000000000003 L49.99999999999994,85.00000000000001" stroke="black" />
<path d="M49.99999999999994,85.00000000000001 L49.99999999999993,80.00000000000001" stroke="black" />
<path d="M49.99999999999993,80.00000000000001 L44.99999999999993,80.00000000000003" stroke="black" />
<path d="M44.99999999999993,80.00000000000003 L44.999999999999915,75.00000000000003" stroke="black" />
<path d="M44.999999999999915,75.00000000000003 L39.999999999999915,75.00000000000004" stroke="black" />
<path d="M39.999999999999915,75.00000000000004 L39.99999999999992,80.00000000000004" stroke="black" />
<path d="M39.99999999999992,80.00000000000004 L44.99999999999992,80.00000000000003" stroke="black" />
<path d="M44.99999999999992,80.00000000000003 L44.99999999999993,85.00000000000003" stroke="black" />
<path d="M44.99999999999993,85.00000000000003 L39.99999999999993,85.00000000000004" stroke="black" />
<path d="M39.99999999999993,85.00000000000004 L39.999999999999936,90.00000000000004" stroke="black" />
<path d="M39.999999999999936,90.00000000000004 L34.999999999999936,90.00000000000006" stroke="black" />
<path d="M34.999999999999936,90.00000000000006 L34.99999999999992,85.00000000000006" stroke="black" />
<path d="M34.99999999999992,85.00000000000006 L29.999999999999922,85.00000000000007" stroke="black" />
<path d="M29.999999999999922,85.00000000000007 L29.999999999999932,90.00000000000007" stroke="black" />
<path d="M29.999999999999932,90.00000000000007 L24.999999999999932,90.00000000000009" stroke="black" />
<path d="M24.999999999999932,90.00000000000009 L24.999999999999922,85.00000000000009" stroke="black" />
<path d="M24.999999999999922,85.00000000000009 L29.999999999999922,85.00000000000007" stroke="black" />
<path d="M29.999999999999922,85.00000000000007 L29.99999999999991,80.00000000000007" stroke="black" />
<path d="M29.99999999999991,80.00000000000007 L24.99999999999991,80.00000000000009" stroke="black" />
<path d="M24.99999999999991,80.00000000000009 L24.9999999999999,75.00000000000009" stroke="black" />
<path d="M24.9999999999999,75.00000000000009 L19.9999999999999,75.0000000000001" stroke="black" />
<path d="M19.9999999999999,75.0000000000001 L19.99999999999991,80.0000000000001" stroke="black" />
<path d="M19.99999999999991,80.0000000000001 L14.999999999999911,80.00000000000011" stroke="black" />
<path d="M14.999999999999911,80.00000000000011 L14.9999999999999,75.00000000000011" stroke="black" />
<path d="M14.9999999999999,75.00000000000011 L19.9999999999999,75.0000000000001" stroke="black" />
<path d="M19.9999999999999,75.0000000000001 L19.99999999999989,70.0000000000001" stroke="black" />
<path d="M19.99999999999989,70.0000000000001 L24.99999999999989,70.00000000000009" stroke="black" />
<path d="M24.99999999999989,70.00000000000009 L24.9999999999999,75.00000000000009" stroke="black" />
<path d="M24.9999999999999,75.00000000000009 L29.9999999999999,75.00000000000007" stroke="black" />
<path d="M29.9999999999999,75.00000000000007 L29.99999999999989,70.00000000000007" stroke="black" />
<path d="M29.99999999999989,70.00000000000007 L24.99999999999989,70.00000000000009" stroke="black" />
<path d="M24.99999999999989,70.00000000000009 L24.99999999999988,65.00000000000009" stroke="black" />
<path d="M24.99999999999988,65.00000000000009 L29.99999999999988,65.00000000000007" stroke="black" />
<path d="M29.99999999999988,65.00000000000007 L29.99999999999987,60.00000000000007" stroke="black" />
<path d="M29.99999999999987,60.00000000000007 L24.99999999999987,60.000000000000085" stroke="black" />
<path d="M24.99999999999987,60.000000000000085 L24.999999999999858,55.000000000000085" stroke="black" />
<path d="M24.999999999999858,55.000000000000085 L19.999999999999858,55.0000000000001" stroke="black" />
<path d="M19.999999999999858,55.0000000000001 L19.99999999999987,60.0000000000001" stroke="black" />
<path d="M19.99999999999987,60.0000000000001 L24.99999999999987,60.00000000000009" stroke="black" />
<path d="M24.99999999999987,60.00000000000009 L24.99999999999988,65.00000000000009" stroke="black" />
<path d="M24.99999999999988,65.00000000000009 L19.99999999999988,65.0000000000001" stroke="black" />
<path d="M19.99999999999988,65.0000000000001 L19.99999999999989,70.0000000000001" stroke="black" />
<path d="M19.99999999999989,70.0000000000001 L14.99999999999989,70.00000000000011" stroke="black" />
<path d="M14.99999999999989,70.00000000000011 L14.99999999999988,65.00000000000011" stroke="black" />
<path d="M14.99999999999988,65.00000000000011 L9.99999999999988,65.00000000000013" stroke="black" />
<path d="M9.99999999999988,65.00000000000013 L9.99999999999989,70.00000000000013" stroke="black" />
<path d="M9.99999999999989,70.00000000000013 L4.99999999999989,70.00000000000014" stroke="black" />
<path d="M4.99999999999989,70.00000000000014 L4.999999999999879,65.00000000000014" stroke="black" />
<path d="M4.999999999999879,65.00000000000014 L9.99999999999988,65.00000000000013" stroke="black" />
<path d="M9.99999999999988,65.00000000000013 L9.999999999999869,60.00000000000013" stroke="black" />
<path d="M9.999999999999869,60.00000000000013 L4.9999999999998685,60.00000000000014" stroke="black" />
<path d="M4.9999999999998685,60.00000000000014 L4.999999999999858,55.00000000000014" stroke="black" />
<path d="M4.999999999999858,55.00000000000014 L-1.4210854715202004e-13,55.000000000000156" stroke="black" />
<path d="M-1.4210854715202004e-13,55.000000000000156 L-1.3169595445608458e-13,60.000000000000156" stroke="black" />
<path d="M-1.3169595445608458e-13,60.000000000000156 L4.9999999999998685,60.00000000000015" stroke="black" />
<path d="M4.9999999999998685,60.00000000000015 L4.999999999999879,65.00000000000014" stroke="black" />
<path d="M4.999999999999879,65.00000000000014 L-1.2079226507921703e-13,65.00000000000016" stroke="black" />
<path d="M-1.2079226507921703e-13,65.00000000000016 L-1.1037967238328159e-13,70.00000000000016" stroke="black" />
<path d="M-1.1037967238328159e-13,70.00000000000016 L-5.00000000000011,70.00000000000017" stroke="black" />
<path d="M-5.00000000000011,70.00000000000017 L-5.000000000000121,65.00000000000017" stroke="black" />
<path d="M-5.000000000000121,65.00000000000017 L-10.00000000000012,65.00000000000018" stroke="black" />
<path d="M-10.00000000000012,65.00000000000018 L-10.00000000000011,70.00000000000018" stroke="black" />
<path d="M-10.00000000000011,70.00000000000018 L-5.00000000000011,70.00000000000017" stroke="black" />
<path d="M-5.00000000000011,70.00000000000017 L-5.0000000000000995,75.00000000000017" stroke="black" />
<path d="M-5.0000000000000995,75.00000000000017 L-10.0000000000001,75.00000000000018" stroke="black" />
<path d="M-10.0000000000001,75.00000000000018 L-10.000000000000089,80.00000000000018" stroke="black" />
<path d="M-10.000000000000089,80.00000000000018 L-5.000000000000089,80.00000000000017" stroke="black" />
<path d="M-5.000000000000089,80.00000000000017 L-5.000000000000078,85.00000000000017" stroke="black" />
<path d="M-5.000000000000078,85.00000000000017 L-7.815970093361102e-14,85.00000000000016" stroke="black" />
<path d="M-7.815970093361102e-14,85.00000000000016 L-8.795997022997279e-14,80.00000000000016" stroke="black" />
<path d="M-8.795997022997279e-14,80.00000000000016 L-5.000000000000088,80.00000000000017" stroke="black" />
<path d="M-5.000000000000088,80.00000000000017 L-5.000000000000098,75.00000000000017" stroke="black" />
<path d="M-5.000000000000098,75.00000000000017 L-9.769962616701378e-14,75.00000000000016" stroke="black" />
<path d="M-9.769962616701378e-14,75.00000000000016 L-1.0749989546337554e-13,70.00000000000016" stroke="black" />
<path d="M-1.0749989546337554e-13,70.00000000000016 L4.9999999999998925,70.00000000000014" stroke="black" />
<path d="M4.9999999999998925,70.00000000000014 L4.999999999999903,75.00000000000014" stroke="black" />
<path d="M4.999999999999903,75.00000000000014 L9.999999999999904,75.00000000000013" stroke="black" />
<path d="M9.999999999999904,75.00000000000013 L9.999999999999893,70.00000000000013" stroke="black" />
<path d="M9.999999999999893,70.00000000000013 L14.999999999999893,70.00000000000011" stroke="black" />
<path d="M14.999999999999893,70.00000000000011 L14.999999999999904,75.00000000000011" stroke="black" />
<path d="M14.999999999999904,75.00000000000011 L9.999999999999904,75.00000000000013" stroke="black" />
<path d="M9.999999999999904,75.00000000000013 L9.999999999999915,80.00000000000013" stroke="black" />
<path d="M9.999999999999915,80.00000000000013 L14.999999999999915,80.00000000000011" stroke="black" />
<path d="M14.999999999999915,80.00000000000011 L14.999999999999925,85.00000000000011" stroke="black" />
<path d="M14.999999999999925,85.00000000000011 L19.999999999999925,85.0000000000001" stroke="black" />
<path d="M19.999999999999925,85.0000000000001 L19.999999999999915,80.0000000000001" stroke="black" />
<path d="M19.999999999999915,80.0000000000001 L24.999999999999915,80.00000000000009" stroke="black" />
<path d="M24.999999999999915,80.00000000000009 L24.999999999999925,85.00000000000009" stroke="black" />
<path d="M24.999999999999925,85.00000000000009 L19.999999999999925,85.0000000000001" stroke="black" />
<path d="M19.999999999999925,85.0000000000001 L19.999999999999936,90.0000000000001" stroke="black" />
<path d="M19.999999999999936,90.0000000000001 L14.999999999999936,90.00000000000011" stroke="black" />
<path d="M14.999999999999936,90.00000000000011 L14.999999999999925,85.00000000000011" stroke="black" />
<path d="M14.999999999999925,85.00000000000011 L9.999999999999925,85.00000000000013" stroke="black" />
<path d="M9.999999999999925,85.00000000000013 L9.999999999999936,90.00000000000013" stroke="black" />
<path d="M9.999999999999936,90.00000000000013 L14.999999999999936,90.00000000000011" stroke="black" />
<path d="M14.999999999999936,90.00000000000011 L14.999999999999947,95.00000000000011" stroke="black" />
<path d="M14.999999999999947,95.00000000000011 L9.999999999999947,95.00000000000013" stroke="black" />
<path d="M9.999999999999947,95.00000000000013 L9.999999999999957,100.00000000000013" stroke="black" />
<path d="M9.999999999999957,100.00000000000013 L14.999999999999957,100.00000000000011" stroke="black" />
<path d="M14.999999999999957,100.00000000000011 L14.999999999999968,105.00000000000011" stroke="black" />
<path d="M14.999999999999968,105.00000000000011 L19.999999999999968,105.0000000000001" stroke="black" />
<path d="M19.999999999999968,105.0000000000001 L19.999999999999957,100.0000000000001" stroke="black" />
<path d="M19.999999999999957,100.0000000000001 L24.999999999999957,100.00000000000009" stroke="black" />
<path d="M24.999999999999957,100.00000000000009 L24.999999999999968,105.00000000000009" stroke="black" />
<path d="M24.999999999999968,105.00000000000009 L19.999999999999968,105.0000000000001" stroke="black" />
<path d="M19.999999999999968,105.0000000000001 L19.99999999999998,110.0000000000001" stroke="black" />
<path d="M19.99999999999998,110.0000000000001 L14.999999999999979,110.00000000000011" stroke="black" />
<path d="M14.999999999999979,110.00000000000011 L14.999999999999968,105.00000000000011" stroke="black" />
<path d="M14.999999999999968,105.00000000000011 L9.999999999999968,105.00000000000013" stroke="black" />
<path d="M9.999999999999968,105.00000000000013 L9.999999999999979,110.00000000000013" stroke="black" />
<path d="M9.999999999999979,110.00000000000013 L4.999999999999979,110.00000000000014" stroke="black" />
<path d="M4.999999999999979,110.00000000000014 L4.999999999999968,105.00000000000014" stroke="black" />
<path d="M4.999999999999968,105.00000000000014 L9.999999999999968,105.00000000000013" stroke="black" />
<path d="M9.999999999999968,105.00000000000013 L9.999999999999957,100.00000000000013" stroke="black" />
<path d="M9.999999999999957,100.00000000000013 L4.999999999999957,100.00000000000014" stroke="black" />
<path d="M4.999999999999957,100.00000000000014 L4.999999999999947,95.00000000000014" stroke="black" />
<path d="M4.999999999999947,95.00000000000014 L-5.3290705182007514e-14,95.00000000000016" stroke="black" />
<path d="M-5.3290705182007514e-14,95.00000000000016 L-4.287811248607207e-14,100.00000000000016" stroke="black" />
<path d="M-4.287811248607207e-14,100.00000000000016 L4.999999999999957,100.00000000000014" stroke="black" />
<path d="M4.999999999999957,100.00000000000014 L4.999999999999968,105.00000000000014" stroke="black" />
<path d="M4.999999999999968,105.00000000000014 L-3.197442310920451e-14,105.00000000000016" stroke="black" />
<path d="M-3.197442310920451e-14,105.00000000000016 L-2.1561830413269067e-14,110.00000000000016" stroke="black" />
<path d="M-2.1561830413269067e-14,110.00000000000016 L-5.000000000000021,110.00000000000017" stroke="black" />
<path d="M-5.000000000000021,110.00000000000017 L-5.000000000000032,105.00000000000017" stroke="black" />
<path d="M-5.000000000000032,105.00000000000017 L-10.000000000000032,105.00000000000018" stroke="black" />
<path d="M-10.000000000000032,105.00000000000018 L-10.000000000000021,110.00000000000018" stroke="black" />
<path d="M-10.000000000000021,110.00000000000018 L-5.000000000000021,110.00000000000017" stroke="black" />
<path d="M-5.000000000000021,110.00000000000017 L-5.000000000000011,115.00000000000017" stroke="black" />
<path d="M-5.000000000000011,115.00000000000017 L-10.00000000000001,115.00000000000018" stroke="black" />
<path d="M-10.00000000000001,115.00000000000018 L-10.0,120.00000000000018" stroke="black" />
<path d="M-10.0,120.00000000000018 L-5.0,120.00000000000017" stroke="black" />
<path d="M-5.0,120.00000000000017 L-4.999999999999989,125.00000000000017" stroke="black" />
<path d="M-4.999999999999989,125.00000000000017 L1.0658141036401503e-14,125.00000000000016" stroke="black" />
<path d="M1.0658141036401503e-14,125.00000000000016 L8.578717400397353e-16,120.00000000000016" stroke="black" />
<path d="M8.578717400397353e-16,120.00000000000016 L5.000000000000001,120.00000000000014" stroke="black" />
<path d="M5.000000000000001,120.00000000000014 L5.0000000000000115,125.00000000000014" stroke="black" />
<path d="M5.0000000000000115,125.00000000000014 L1.1546319456101628e-14,125.00000000000016" stroke="black" />
<path d="M1.1546319456101628e-14,125.00000000000016 L2.195891215203707e-14,130.00000000000017" stroke="black" />
<path d="M2.195891215203707e-14,130.00000000000017 L-4.999999999999978,130.00000000000017" stroke="black" />
<path d="M-4.999999999999978,130.00000000000017 L-4.9999999999999885,125.00000000000017" stroke="black" />
<path d="M-4.9999999999999885,125.00000000000017 L-9.99999999999999,125.00000000000018" stroke="black" />
<path d="M-9.99999999999999,125.00000000000018 L-9.999999999999979,130.00000000000017" stroke="black" />
<path d="M-9.999999999999979,130.00000000000017 L-14.999999999999979,130.00000000000017" stroke="black" />
<path d="M-14.999999999999979,130.00000000000017 L-14.99999999999999,125.00000000000017" stroke="black" />
<path d="M-14.99999999999999,125.00000000000017 L-9.99999999999999,125.00000000000016" stroke="black" />
<path d="M-9.99999999999999,125.00000000000016 L-10.0,120.00000000000016" stroke="black" />
<path d="M-10.0,120.00000000000016 L-15.0,120.00000000000017" stroke="black" />
<path d="M-15.0,120.00000000000017 L-15.00000000000001,115.00000000000017" stroke="black" />
<path d="M-15.00000000000001,115.00000000000017 L-20.00000000000001,115.00000000000018" stroke="black" />
<path d="M-20.00000000000001,115.00000000000018 L-20.0,120.00000000000018" stroke="black" />
<path d="M-20.0,120.00000000000018 L-25.0,120.0000000000002" stroke="black" />
<path d="M-25.0,120.0000000000002 L-25.00000000000001,115.0000000000002" stroke="black" />
<path d="M-25.00000000000001,115.0000000000002 L-20.00000000000001,115.00000000000018" stroke="black" />
<path d="M-20.00000000000001,115.00000000000018 L-20.00000000000002,110.00000000000018" stroke="black" />
<path d="M-20.00000000000002,110.00000000000018 L-15.000000000000021,110.00000000000017" stroke="black" />
<path d="M-15.000000000000021,110.00000000000017 L-15.000000000000009,115.00000000000017" stroke="black" />
<path d="M-15.000000000000009,115.00000000000017 L-10.000000000000009,115.00000000000016" stroke="black" />
<path d="M-10.000000000000009,115.00000000000016 L-10.00000000000002,110.00000000000016" stroke="black" />
<path d="M-10.00000000000002,110.00000000000016 L-15.00000000000002,110.00000000000017" stroke="black" />
<path d="M-15.00000000000002,110.00000000000017 L-15.00000000000003,105.00000000000017" stroke="black" />
<path d="M-15.00000000000003,105.00000000000017 L-10.00000000000003,105.00000000000016" stroke="black" />
<path d="M-10.00000000000003,105.00000000000016 L-10.00000000000004,100.00000000000016" stroke="black" />
<path d="M-10.00000000000004,100.00000000000016 L-15.00000000000004,100.00000000000017" stroke="black" />
<path d="M-15.00000000000004,100.00000000000017 L-15.000000000000052,95.00000000000017" stroke="black" />
<path d="M-15.000000000000052,95.00000000000017 L-20.00000000000005,95.00000000000018" stroke="black" />
<path d="M-20.00000000000005,95.00000000000018 L-20.00000000000004,100.00000000000018" stroke="black" />
<path d="M-20.00000000000004,100.00000000000018 L-15.000000000000039,100.00000000000017" stroke="black" />
<path d="M-15.000000000000039,100.00000000000017 L-15.000000000000028,105.00000000000017" stroke="black" />
<path d="M-15.000000000000028,105.00000000000017 L-20.00000000000003,105.00000000000018" stroke="black" />
<path d="M-20.00000000000003,105.00000000000018 L-20.000000000000018,110.00000000000018" stroke="black" />
<path d="M-20.000000000000018,110.00000000000018 L-25.000000000000018,110.0000000000002" stroke="black" />
<path d="M-25.000000000000018,110.0000000000002 L-25.00000000000003,105.0000000000002" stroke="black" />
<path d="M-25.00000000000003,105.0000000000002 L-30.00000000000003,105.00000000000021" stroke="black" />
<path d="M-30.00000000000003,105.00000000000021 L-30.000000000000018,110.00000000000021" stroke="black" />
<path d="M-30.000000000000018,110.00000000000021 L-35.000000000000014,110.00000000000023" stroke="black" />
<path d="M-35.000000000000014,110.00000000000023 L-35.00000000000003,105.00000000000023" stroke="black" />
<path d="M-35.00000000000003,105.00000000000023 L-30.00000000000003,105.00000000000021" stroke="black" />
<path d="M-30.00000000000003,105.00000000000021 L-30.00000000000004,100.00000000000021" stroke="black" />
<path d="M-30.00000000000004,100.00000000000021 L-35.00000000000004,100.00000000000023" stroke="black" />
<path d="M-35.00000000000004,100.00000000000023 L-35.00000000000006,95.00000000000023" stroke="black" />
<path d="M-35.00000000000006,95.00000000000023 L-40.00000000000006,95.00000000000024" stroke="black" />
<path d="M-40.00000000000006,95.00000000000024 L-40.00000000000005,100.00000000000024" stroke="black" />
<path d="M-40.00000000000005,100.00000000000024 L-35.00000000000005,100.00000000000023" stroke="black" />
<path d="M-35.00000000000005,100.00000000000023 L-35.00000000000004,105.00000000000023" stroke="black" />
<path d="M-35.00000000000004,105.00000000000023 L-40.00000000000004,105.00000000000024" stroke="black" />
<path d="M-40.00000000000004,105.00000000000024 L-40.000000000000036,110.00000000000024" stroke="black" />
<path d="M-40.000000000000036,110.00000000000024 L-45.000000000000036,110.00000000000026" stroke="black" />
<path d="M-45.000000000000036,110.00000000000026 L-45.00000000000005,105.00000000000026" stroke="black" />
<path d="M-45.00000000000005,105.00000000000026 L-50.00000000000005,105.00000000000027" stroke="black" />
<path d="M-50.00000000000005,105.00000000000027 L-50.00000000000004,110.00000000000027" stroke="black" />
<path d="M-50.00000000000004,110.00000000000027 L-45.00000000000004,110.00000000000026" stroke="black" />
<path d="M-45.00000000000004,110.00000000000026 L-45.000000000000036,115.00000000000026" stroke="black" />
<path d="M-45.000000000000036,115.00000000000026 L-50.000000000000036,115.00000000000027" stroke="black" />
<path d="M-50.000000000000036,115.00000000000027 L-50.00000000000003,120.00000000000027" stroke="black" />
<path d="M-50.00000000000003,120.00000000000027 L-45.00000000000003,120.00000000000026" stroke="black" />
<path d="M-45.00000000000003,120.00000000000026 L-45.00000000000002,125.00000000000026" stroke="black" />
<path d="M-45.00000000000002,125.00000000000026 L-40.00000000000002,125.00000000000024" stroke="black" />
<path d="M-40.00000000000002,125.00000000000024 L-40.00000000000003,120.00000000000024" stroke="black" />
<path d="M-40.00000000000003,120.00000000000024 L-45.00000000000003,120.00000000000026" stroke="black" />
<path d="M-45.00000000000003,120.00000000000026 L-45.000000000000036,115.00000000000026" stroke="black" />
<path d="M-45.000000000000036,115.00000000000026 L-40.000000000000036,115.00000000000024" stroke="black" />
<path d="M-40.000000000000036,115.00000000000024 L-40.00000000000004,110.00000000000024" stroke="black" />
<path d="M-40.00000000000004,110.00000000000024 L-35.00000000000004,110.00000000000023" stroke="black" />
<path d="M-35.00000000000004,110.00000000000023 L-35.000000000000036,115.00000000000023" stroke="black" />
<path d="M-35.000000000000036,115.00000000000023 L-30.000000000000036,115.00000000000021" stroke="black" />
<path d="M-30.000000000000036,115.00000000000021 L-30.000000000000046,110.00000000000021" stroke="black" />
<path d="M-30.000000000000046,110.00000000000021 L-25.000000000000046,110.0000000000002" stroke="black" />
<path d="M-25.000000000000046,110.0000000000002 L-25.000000000000036,115.0000000000002" stroke="black" />
<path d="M-25.000000000000036,115.0000000000002 L-30.000000000000036,115.00000000000021" stroke="black" />
<path d="M-30.000000000000036,115.00000000000021 L-30.000000000000025,120.00000000000021" stroke="black" />
<path d="M-30.000000000000025,120.00000000000021 L-25.000000000000025,120.0000000000002" stroke="black" />
<path d="M-25.000000000000025,120.0000000000002 L-25.000000000000014,125.0000000000002" stroke="black" />
<path d="M-25.000000000000014,125.0000000000002 L-20.000000000000014,125.00000000000018" stroke="black" />
<path d="M-20.000000000000014,125.00000000000018 L-20.000000000000025,120.00000000000018" stroke="black" />
<path d="M-20.000000000000025,120.00000000000018 L-15.000000000000025,120.00000000000017" stroke="black" />
<path d="M-15.000000000000025,120.00000000000017 L-15.000000000000014,125.00000000000017" stroke="black" />
<path d="M-15.000000000000014,125.00000000000017 L-20.000000000000014,125.00000000000018" stroke="black" />
<path d="M-20.000000000000014,125.00000000000018 L-20.000000000000004,130.00000000000017" stroke="black" />
<path d="M-20.000000000000004,130.00000000000017 L-25.000000000000004,130.00000000000017" stroke="black" />
<path d="M-25.000000000000004,130.00000000000017 L-25.000000000000014,125.00000000000017" stroke="black" />
<path d="M-25.000000000000014,125.00000000000017 L-30.000000000000014,125.00000000000018" stroke="black" />
<path d="M-30.000000000000014,125.00000000000018 L-30.000000000000004,130.00000000000017" stroke="black" />
<path d="M-30.000000000000004,130.00000000000017 L-25.000000000000004,130.00000000000017" stroke="black" />
<path d="M-25.000000000000004,130.00000000000017 L-24.999999999999993,135.00000000000017" stroke="black" />
<path d="M-24.999999999999993,135.00000000000017 L-29.999999999999993,135.00000000000017" stroke="black" />
<path d="M-29.999999999999993,135.00000000000017 L-29.999999999999982,140.00000000000017" stroke="black" />
<path d="M-29.999999999999982,140.00000000000017 L-24.999999999999982,140.00000000000017" stroke="black" />
<path d="M-24.999999999999982,140.00000000000017 L-24.99999999999997,145.00000000000017" stroke="black" />
<path d="M-24.99999999999997,145.00000000000017 L-19.99999999999997,145.00000000000017" stroke="black" />
<path d="M-19.99999999999997,145.00000000000017 L-19.999999999999982,140.00000000000017" stroke="black" />
<path d="M-19.999999999999982,140.00000000000017 L-14.999999999999982,140.00000000000017" stroke="black" />
<path d="M-14.999999999999982,140.00000000000017 L-14.999999999999972,145.00000000000017" stroke="black" />
<path d="M-14.999999999999972,145.00000000000017 L-19.99999999999997,145.00000000000017" stroke="black" />
<path d="M-19.99999999999997,145.00000000000017 L-19.99999999999996,150.00000000000017" stroke="black" />
<path d="M-19.99999999999996,150.00000000000017 L-24.99999999999996,150.00000000000017" stroke="black" />
<path d="M-24.99999999999996,150.00000000000017 L-24.99999999999997,145.00000000000017" stroke="black" />
<path d="M-24.99999999999997,145.00000000000017 L-29.99999999999997,145.00000000000017" stroke="black" />
<path d="M-29.99999999999997,145.00000000000017 L-29.99999999999996,150.00000000000017" stroke="black" />
<path d="M-29.99999999999996,150.00000000000017 L-34.99999999999996,150.00000000000017" stroke="black" />
<path d="M-34.99999999999996,150.00000000000017 L-34.99999999999997,145.00000000000017" stroke="black" />
<path d="M-34.99999999999997,145.00000000000017 L-29.99999999999997,145.00000000000017" stroke="black" />
<path d="M-29.99999999999997,145.00000000000017 L-29.999999999999982,140.00000000000017" stroke="black" />
<path d="M-29.999999999999982,140.00000000000017 L-34.999999999999986,140.00000000000017" stroke="black" />
<path d="M-34.999999999999986,140.00000000000017 L-35.0,135.00000000000017" stroke="black" />
<path d="M-35.0,135.00000000000017 L-40.0,135.00000000000017" stroke="black" />
<path d="M-40.0,135.00000000000017 L-39.99999999999999,140.00000000000017" stroke="black" />
<path d="M-39.99999999999999,140.00000000000017 L-34.99999999999999,140.00000000000017" stroke="black" />
<path d="M-34.99999999999999,140.00000000000017 L-34.999999999999986,145.00000000000017" stroke="black" />
<path d="M-34.999999999999986,145.00000000000017 L-39.999999999999986,145.00000000000017" stroke="black" />
<path d="M-39.999999999999986,145.00000000000017 L-39.99999999999998,150.00000000000017" stroke="black" />
<path d="M-39.99999999999998,150.00000000000017 L-44.99999999999998,150.00000000000017" stroke="black" />
<path d="M-44.99999999999998,150.00000000000017 L-44.99999999999999,145.00000000000017" stroke="black" />
<path d="M-44.99999999999999,145.00000000000017 L-49.99999999999999,145.00000000000017" stroke="black" />
<path d="M-49.99999999999999,145.00000000000017 L-49.999999999999986,150.00000000000017" stroke="black" />
<path d="M-49.999999999999986,150.00000000000017 L-44.999999999999986,150.00000000000017" stroke="black" />
<path d="M-44.999999999999986,150.00000000000017 L-44.99999999999998,155.00000000000017" stroke="black" />
<path d="M-44.99999999999998,155.00000000000017 L-49.99999999999998,155.00000000000017" stroke="black" />
<path d="M-49.99999999999998,155.00000000000017 L-49.99999999999997,160.00000000000017" stroke="black" />
<path d="M-49.99999999999997,160.00000000000017 L-44.99999999999997,160.00000000000017" stroke="black" />
<path d="M-44.99999999999997,160.00000000000017 L-44.999999999999964,165.00000000000017" stroke="black" />
<path d="M-44.999999999999964,165.00000000000017 L-39.999999999999964,165.00000000000017" stroke="black" />
<path d="M-39.999999999999964,165.00000000000017 L-39.99999999999997,160.00000000000017" stroke="black" />
<path d="M-39.99999999999997,160.00000000000017 L-44.99999999999997,160.00000000000017" stroke="black" />
<path d="M-44.99999999999997,160.00000000000017 L-44.99999999999998,155.00000000000017" stroke="black" />
<path d="M-44.99999999999998,155.00000000000017 L-39.99999999999998,155.00000000000017" stroke="black" />
<path d="M-39.99999999999998,155.00000000000017 L-39.999999999999986,150.00000000000017" stroke="black" />
<path d="M-39.999999999999986,150.00000000000017 L-34.999999999999986,150.00000000000017" stroke="black" />
<path d="M-34.999999999999986,150.00000000000017 L-34.99999999999998,155.00000000000017" stroke="black" />
<path d="M-34.99999999999998,155.00000000000017 L-29.99999999999998,155.00000000000017" stroke="black" />
<path d="M-29.99999999999998,155.00000000000017 L-29.99999999999999,150.00000000000017" stroke="black" />
<path d="M-29.99999999999999,150.00000000000017 L-24.99999999999999,150.00000000000017" stroke="black" />
<path d="M-24.99999999999999,150.00000000000017 L-24.99999999999998,155.00000000000017" stroke="black" />
<path d="M-24.99999999999998,155.00000000000017 L-29.99999999999998,155.00000000000017" stroke="black" />
<path d="M-29.99999999999998,155.00000000000017 L-29.999999999999968,160.00000000000017" stroke="black" />
<path d="M-29.999999999999968,160.00000000000017 L-24.999999999999968,160.00000000000017" stroke="black" />
<path d="M-24.999999999999968,160.00000000000017 L-24.999999999999957,165.00000000000017" stroke="black" />
<path d="M-24.999999999999957,165.00000000000017 L-19.999999999999957,165.00000000000017" stroke="black" />
<path d="M-19.999999999999957,165.00000000000017 L-19.999999999999968,160.00000000000017" stroke="black" />
<path d="M-19.999999999999968,160.00000000000017 L-14.999999999999968,160.00000000000017" stroke="black" />
<path d="M-14.999999999999968,160.00000000000017 L-14.999999999999957,165.00000000000017" stroke="black" />
<path d="M-14.999999999999957,165.00000000000017 L-19.999999999999957,165.00000000000017" stroke="black" />
<path d="M-19.999999999999957,165.00000000000017 L-19.999999999999947,170.00000000000017" stroke="black" />
<path d="M-19.999999999999947,170.00000000000017 L-24.999999999999947,170.00000000000017" stroke="black" />
<path d="M-24.999999999999947,170.00000000000017 L-24.999999999999957,165.00000000000017" stroke="black" />
<path d="M-24.999999999999957,165.00000000000017 L-29.999999999999957,165.00000000000017" stroke="black" />
<path d="M-29.999999999999957,165.00000000000017 L-29.999999999999947,170.00000000000017" stroke="black" />
<path d="M-29.999999999999947,170.00000000000017 L-24.999999999999947,170.00000000000017" stroke="black" />
<path d="M-24.999999999999947,170.00000000000017 L-24.999999999999936,175.00000000000017" stroke="black" />
<path d="M-24.999999999999936,175.00000000000017 L-29.999999999999936,175.00000000000017" stroke="black" />
<path d="M-29.999999999999936,175.00000000000017 L-29.999999999999925,180.00000000000017" stroke="black" />
<path d="M-29.999999999999925,180.00000000000017 L-24.999999999999925,180.00000000000017" stroke="black" />
<path d="M-24.999999999999925,180.00000000000017 L-24.999999999999915,185.00000000000017" stroke="black" />
<path d="M-24.999999999999915,185.00000000000017 L-19.999999999999915,185.00000000000017" stroke="black" />
<path d="M-19.999999999999915,185.00000000000017 L-19.999999999999925,180.00000000000017" stroke="black" />
<path d="M-19.999999999999925,180.00000000000017 L-24.999999999999925,180.00000000000017" stroke="black" />
<path d="M-24.999999999999925,180.00000000000017 L-24.999999999999936,175.00000000000017" stroke="black" />
<path d="M-24.999999999999936,175.00000000000017 L-19.999999999999936,175.00000000000017" stroke="black" />
<path d="M-19.999999999999936,175.00000000000017 L-19.999999999999947,170.00000000000017" stroke="black" />
<path d="M-19.999999999999947,170.00000000000017 L-14.999999999999947,170.00000000000017" stroke="black" />
<path d="M-14.999999999999947,170.00000000000017 L-14.999999999999936,175.00000000000017" stroke="black" />
<path d="M-14.999999999999936,175.00000000000017 L-9.999999999999936,175.00000000000017" stroke="black" />
<path d="M-9.999999999999936,175.00000000000017 L-9.999999999999947,170.00000000000017" stroke="black" />
<path d="M-9.999999999999947,170.00000000000017 L-4.999999999999947,170.00000000000017" stroke="black" />
<path d="M-4.999999999999947,170.00000000000017 L-4.999999999999936,175.00000000000017" stroke="black" />
<path d="M-4.999999999999936,175.00000000000017 L-9.999999999999936,175.00000000000017" stroke="black" />
<path d="M-9.999999999999936,175.00000000000017 L-9.999999999999925,180.00000000000017" stroke="black" />
<path d="M-9.999999999999925,180.00000000000017 L-4.999999999999925,180.00000000000017" stroke="black" />
<path d="M-4.999999999999925,180.00000000000017 L-4.999999999999915,185.00000000000017" stroke="black" />
<path d="M-4.999999999999915,185.00000000000017 L8.526512829121202e-14,185.00000000000017" stroke="black" />
<path d="M8.526512829121202e-14,185.00000000000017 L7.546485899485026e-14,180.00000000000017" stroke="black" />
<path d="M7.546485899485026e-14,180.00000000000017 L-4.9999999999999245,180.00000000000017" stroke="black" />
<path d="M-4.9999999999999245,180.00000000000017 L-4.999999999999934,175.00000000000017" stroke="black" />
<path d="M-4.999999999999934,175.00000000000017 L6.572520305780927e-14,175.00000000000017" stroke="black" />
<path d="M6.572520305780927e-14,175.00000000000017 L5.59249337614475e-14,170.00000000000017" stroke="black" />
<path d="M5.59249337614475e-14,170.00000000000017 L5.000000000000056,170.00000000000017" stroke="black" />
<path d="M5.000000000000056,170.00000000000017 L5.000000000000067,175.00000000000017" stroke="black" />
<path d="M5.000000000000067,175.00000000000017 L10.000000000000068,175.00000000000017" stroke="black" />
<path d="M10.000000000000068,175.00000000000017 L10.000000000000057,170.00000000000017" stroke="black" />
<path d="M10.000000000000057,170.00000000000017 L5.000000000000057,170.00000000000017" stroke="black" />
<path d="M5.000000000000057,170.00000000000017 L5.000000000000047,165.00000000000017" stroke="black" />
<path d="M5.000000000000047,165.00000000000017 L10.000000000000046,165.00000000000017" stroke="black" />
<path d="M10.000000000000046,165.00000000000017 L10.000000000000036,160.00000000000017" stroke="black" />
<path d="M10.000000000000036,160.00000000000017 L5.0000000000000355,160.00000000000017" stroke="black" />
<path d="M5.0000000000000355,160.00000000000017 L5.000000000000026,155.00000000000017" stroke="black" />
<path d="M5.000000000000026,155.00000000000017 L2.5757174171303632e-14,155.00000000000017" stroke="black" />
<path d="M2.5757174171303632e-14,155.00000000000017 L3.494512006809172e-14,160.00000000000017" stroke="black" />
</svg>