<?xml version="1.0" encoding="UTF-8"?>
<svg xmlns="http://www.w3.org/2000/svg" xmlns:xlink="http://www.w3.org/1999/xlink"
     width="150000" height="150000" viewBox="-10 -550 750 750">
<defs>
</defs>
<path d="M0,0 L25.0,-0.0" stroke="black" />
<path d="M25.0,-0.0 L25.0,-25.0" stroke="black" />
<path d="M25.0,-25.0 L50.0,-25.0" stroke="black" />
<path d="M50.0,-25.0 L50.0,-0.0" stroke="black" />
<path d="M50.0,-0.0 L75.0,-0.0" stroke="black" />
<path d="M75.0,-0.0 L75.0,-25.0" stroke="black" />
<path d="M75.0,-25.0 L50.0,-25.000000000000004" stroke="black" />
<path d="M50.0,-25.000000000000004 L50.0,-50.0" stroke="black" />
<path d="M50.0,-50.0 L75.0,-50.0" stroke="black" />
<path d="M75.0,-50.0 L75.0,-75.0" stroke="black" />
<path d="M75.0,-75.0 L100.0,-75.0" stroke="black" />
<path d="M100.0,-75.0 L100.0,-100.0" stroke="black" />
<path d="M100.0,-100.0 L125.0,-100.0" stroke="black" />
<path d="M125.0,-100.0 L125.0,-75.0" stroke="black" />
<path d="M125.0,-75.0 L150.0,-75.0" stroke="black" />
<path d="M150.0,-75.0 L150.0,-50.0" stroke="black" />
<path d="M150.0,-50.0 L175.0,-50.0" stroke="black" />
<path d="M175.0,-50.0 L175.0,-25.0" stroke="black" />
<path d="M175.0,-25.0 L150.0,-24.999999999999996" stroke="black" />
<path d="M150.0,-24.999999999999996 L150.0,3.552713678800501e-15" stroke="black" />
<path d="M150.0,3.552713678800501e-15 L175.0,3.552713678800501e-15" stroke="black" />
<path d="M175.0,3.552713678800501e-15 L175.0,-24.999999999999996" stroke="black" />
<path d="M175.0,-24.999999999999996 L200.0,-24.999999999999996" stroke="black" />
<path d="M200.0,-24.999999999999996 L200.0,3.552713678800501e-15" stroke="black" />
<path d="M200.0,3.552713678800501e-15 L225.0,3.552713678800501e-15" stroke="black" />
<path d="M225.0,3.552713678800501e-15 L225.0,-24.999999999999996" stroke="black" />
<path d="M225.0,-24.999999999999996 L200.0,-25.0" stroke="black" />
<path d="M200.0,-25.0 L200.0,-50.0" stroke="black" />
<path d="M200.0,-50.0 L225.0,-50.0" stroke="black" />
<path d="M225.0,-50.0 L225.0,-75.0" stroke="black" />
<path d="M225.0,-75.0 L200.0,-75.0" stroke="black" />
<path d="M200.0,-75.0 L200.0,-50.0" stroke="black" />
<path d="M200.0,-50.0 L175.0,-50.0" stroke="black" />
<path d="M175.0,-50.0 L175.0,-75.0" stroke="black" />
<path d="M175.0,-75.0 L150.0,-75.0" stroke="black" />
<path d="M150.0,-75.0 L150.0,-100.0" stroke="black" />
<path d="M150.0,-100.0 L125.0,-100.0" stroke="black" />
<path d="M125.0,-100.0 L125.0,-125.0" stroke="black" />
<path d="M125.0,-125.0 L150.0,-125.0" stroke="black" />
<path d="M150.0,-125.0 L150.0,-150.0" stroke="black" />
<path d="M150.0,-150.0 L175.0,-150.0" stroke="black" />
<path d="M175.0,-150.0 L175.0,-175.0" stroke="black" />
<path d="M175.0,-175.0 L200.0,-175.0" stroke="black" />
<path d="M200.0,-175.0 L200.0,-150.0" stroke="black" />
<path d="M200.0,-150.0 L225.0,-150.0" stroke="black" />
<path d="M225.0,-150.0 L225.0,-175.0" stroke="black" />
<path d="M225.0,-175.0 L200.0,-175.0" stroke="black" />
<path d="M200.0,-175.0 L200.0,-200.0" stroke="black" />
<path d="M200.0,-200.0 L225.0,-200.0" stroke="black" />
<path d="M225.0,-200.0 L225.0,-225.0" stroke="black" />
<path d="M225.0,-225.0 L250.0,-225.0" stroke="black" />
<path d="M250.0,-225.0 L250.0,-250.0" stroke="black" />
<path d="M250.0,-250.0 L275.0,-250.0" stroke="black" />
<path d="M275.0,-250.0 L275.0,-225.0" stroke="black" />
<path d="M275.0,-225.0 L300.0,-225.0" stroke="black" />
<path d="M300.0,-225.0 L300.0,-250.0" stroke="black" />
<path d="M300.0,-250.0 L275.0,-250.0" stroke="black" />
<path d="M275.0,-250.0 L275.0,-275.0" stroke="black" />
<path d="M275.0,-275.0 L300.0,-275.0" stroke="black" />
<path d="M300.0,-275.0 L300.0,-300.0" stroke="black" />
<path d="M300.0,-300.0 L325.0,-300.0" stroke="black" />
<path d="M325.0,-300.0 L325.0,-325.0" stroke="black" />
<path d="M325.0,-325.0 L350.0,-325.0" stroke="black" />
<path d="M350.0,-325.0 L350.0,-300.0" stroke="black" />
<path d="M350.0,-300.0 L375.0,-300.0" stroke="black" />
<path d="M375.0,-300.0 L375.0,-275.0" stroke="black" />
<path d="M375.0,-275.0 L400.0,-275.0" stroke="black" />
<path d="M400.0,-275.0 L400.0,-250.0" stroke="black" />
<path d="M400.0,-250.0 L375.0,-250.0" stroke="black" />
<path d="M375.0,-250.0 L375.0,-225.0" stroke="black" />
<path d="M375.0,-225.0 L400.0,-225.0" stroke="black" />
<path d="M400.0,-225.0 L400.0,-250.0" stroke="black" />
<path d="M400.0,-250.0 L425.0,-250.0" stroke="black" />
<path d="M425.0,-250.0 L425.0,-225.0" stroke="black" />
<path d="M425.0,-225.0 L450.0,-225.0" stroke="black" />
<path d="M450.0,-225.0 L450.0,-200.0" stroke="black" />
<path d="M450.0,-200.0 L475.0,-200.0" stroke="black" />
<path d="M475.0,-200.0 L475.0,-175.0" stroke="black" />
<path d="M475.0,-175.0 L450.0,-175.0" stroke="black" />
<path d="M450.0,-175.0 L450.0,-150.0" stroke="black" />
<path d="M450.0,-150.0 L475.0,-150.0" stroke="black" />
<path d="M475.0,-150.0 L475.0,-175.0" stroke="black" />
<path d="M475.0,-175.0 L500.0,-175.0" stroke="black" />
<path d="M500.0,-175.0 L500.0,-150.0" stroke="black" />
<path d="M500.0,-150.0 L525.0,-150.0" stroke="black" />
<path d="M525.0,-150.0 L525.0,-125.0" stroke="black" />
<path d="M525.0,-125.0 L550.0,-125.0" stroke="black" />
<path d="M550.0,-125.0 L550.0,-100.0" stroke="black" />
<path d="M550.0,-100.0 L525.0,-100.0" stroke="black" />
<path d="M525.0,-100.0 L525.0,-75.0" stroke="black" />
<path d="M525.0,-75.0 L500.0,-75.0" stroke="black" />
<path d="M500.0,-75.0 L500.0,-50.0" stroke="black" />
<path d="M500.0,-50.0 L475.0,-50.0" stroke="black" />
<path d="M475.0,-50.0 L475.0,-75.0" stroke="black" />
<path d="M475.0,-75.0 L450.0,-75.0" stroke="black" />
<path d="M450.0,-75.0 L450.0,-50.0" stroke="black" />
<path d="M450.0,-50.0 L475.0,-50.0" stroke="black" />
<path d="M475.0,-50.0 L475.0,-25.0" stroke="black" />
<path d="M475.0,-25.0 L450.0,-24.999999999999996" stroke="black" />
<path d="M450.0,-24.999999999999996 L450.0,3.552713678800501e-15" stroke="black" />
<path d="M450.0,3.552713678800501e-15 L475.0,3.552713678800501e-15" stroke="black" />
<path d="M475.0,3.552713678800501e-15 L475.0,-24.999999999999996" stroke="black" />
<path d="M475.0,-24.999999999999996 L500.0,-24.999999999999996" stroke="black" />
<path d="M500.0,-24.999999999999996 L500.0,3.552713678800501e-15" stroke="black" />
<path d="M500.0,3.552713678800501e-15 L525.0,3.552713678800501e-15" stroke="black" />
<path d="M525.0,3.552713678800501e-15 L525.0,-24.999999999999996" stroke="black" />
<path d="M525.0,-24.999999999999996 L500.0,-25.0" stroke="black" />
<path d="M500.0,-25.0 L500.0,-50.0" stroke="black" />
<path d="M500.0,-50.0 L525.0,-50.0" stroke="black" />
<path d="M525.0,-50.0 L525.0,-75.0" stroke="black" />
<path d="M525.0,-75.0 L550.0,-75.0" stroke="black" />
<path d="M550.0,-75.0 L550.0,-100.0" stroke="black" />
<path d="M550.0,-100.0 L575.0,-100.0" stroke="black" />
<path d="M575.0,-100.0 L575.0,-75.0" stroke="black" />
<path d="M575.0,-75.0 L600.0,-75.0" stroke="black" />
<path d="M600.0,-75.0 L600.0,-50.0" stroke="black" />
<path d="M600.0,-50.0 L625.0,-50.0" stroke="black" />
<path d="M625.0,-50.0 L625.0,-25.0" stroke="black" />
<path d="M625.0,-25.0 L600.0,-24.999999999999996" stroke="black" />
<path d="M600.0,-24.999999999999996 L600.0,3.552713678800501e-15" stroke="black" />
<path d="M600.0,3.552713678800501e-15 L625.0,3.552713678800501e-15" stroke="black" />
<path d="M625.0,3.552713678800501e-15 L625.0,-24.999999999999996" stroke="black" />
<path d="M625.0,-24.999999999999996 L650.0,-24.999999999999996" stroke="black" />
<path d="M650.0,-24.999999999999996 L650.0,3.552713678800501e-15" stroke="black" />
<path d="M650.0,3.552713678800501e-15 L675.0,3.552713678800501e-15" stroke="black" />
</svg>